<svg width="32" height="32" viewBox="0 0 32 32" fill="none" xmlns="http://www.w3.org/2000/svg">
<path d="M8.84033 8.37988C9.51796 8.37995 10.0384 8.97376 10.0386 9.66895C10.0386 10.3647 9.51811 10.9589 8.84033 10.959H6.33252C5.65464 10.959 5.13325 10.3648 5.1333 9.66895C5.13348 8.97367 5.65479 8.37988 6.33252 8.37988H8.84033Z" fill="#B3261E" stroke="#B3261E" stroke-width="0.4"/>
<path d="M23.0815 1.7998C25.188 1.80036 26.8659 3.65494 26.8667 5.90723V24.7598C26.8657 27.0119 25.188 28.8657 23.0815 28.8662H8.82764C7.45271 28.8651 6.36844 27.6578 6.36768 26.2031V23.0264H8.63721V26.2031L8.64209 26.2529C8.66292 26.3635 8.75094 26.4285 8.82861 26.4287H23.0815C23.4972 26.4283 23.8687 26.2487 24.1479 25.9453C24.4258 25.6408 24.5967 25.228 24.5972 24.7588V5.90723C24.5966 5.43822 24.4257 5.02568 24.1479 4.7207L24.0386 4.61328C23.7748 4.37609 23.4452 4.23868 23.0815 4.23828H8.82861L8.76123 4.25391C8.69518 4.28439 8.63745 4.3582 8.63721 4.46387V7.63965H6.36768V4.46387C6.36844 3.00917 7.45271 1.80095 8.82764 1.7998H23.0815Z" fill="#B3261E" stroke="#B3261E" stroke-width="0.4"/>
<path d="M8.63721 11.6985V18.968H6.36768V11.6985H8.63721Z" fill="#B3261E" stroke="#B3261E" stroke-width="0.4"/>
<path d="M8.84033 19.7078C9.51817 19.7078 10.0386 20.3025 10.0386 20.9978C10.0385 21.693 9.51801 22.2868 8.84033 22.2869H6.33252C5.65472 22.2869 5.13338 21.6931 5.1333 20.9978C5.1333 20.3025 5.65456 19.7078 6.33252 19.7078H8.84033Z" fill="#B3261E" stroke="#B3261E" stroke-width="0.4"/>
<path d="M21.4951 8.91211V10.8408H12.6807V8.91211H21.4951Z" fill="#B3261E" stroke="#B3261E" stroke-width="0.4"/>
<path d="M21.4951 14.5168V16.4456H12.6807V14.5168H21.4951Z" fill="#B3261E" stroke="#B3261E" stroke-width="0.4"/>
<path d="M18.2227 20.1216V22.0503H12.6807V20.1216H18.2227Z" fill="#B3261E" stroke="#B3261E" stroke-width="0.4"/>
</svg>
