<svg width="24" height="25" viewBox="0 0 24 25" fill="none" xmlns="http://www.w3.org/2000/svg">
<path d="M4.74909 8.5692H6.63004C7.04359 8.5692 7.37912 8.2035 7.37912 7.75197C7.37912 7.3008 7.04359 6.93506 6.63004 6.93506H4.74909C4.3355 6.93506 4 7.30076 4 7.75197C3.99996 8.2035 4.3355 8.5692 4.74909 8.5692Z" fill="#484848"/>
<path d="M17.3113 2H6.62067C5.68412 2.00078 4.92632 2.82699 4.92578 3.84766V6.08004H6.3281V3.84766C6.32845 3.67188 6.45954 3.52895 6.62067 3.52859H17.3113C17.6689 3.52898 17.9859 3.68422 18.221 3.93906C18.4548 4.19547 18.5974 4.54102 18.5977 4.93062V19.0694C18.5974 19.459 18.4548 19.8046 18.221 20.0606C17.9859 20.3159 17.6689 20.4711 17.3113 20.4714H6.62067C6.45958 20.4711 6.32845 20.3282 6.3281 20.1524V17.92H4.92578V20.1524C4.92632 21.173 5.68412 21.9993 6.62067 22H17.3113C18.7965 21.9996 19.9995 20.6883 20.0001 19.0694V4.93062C19.9995 3.31172 18.7965 2.00039 17.3113 2Z" fill="#484848"/>
<path d="M6.3281 9.42383H4.92578V14.5756H6.3281V9.42383Z" fill="#484848"/>
<path d="M7.37912 16.2479C7.37912 15.7967 7.04359 15.4307 6.63004 15.4307H4.74909C4.3355 15.4307 4 15.7968 4 16.2479C4 16.6991 4.3355 17.0648 4.74909 17.0648H6.63004C7.04359 17.0648 7.37912 16.6991 7.37912 16.2479Z" fill="#484848"/>
<path d="M15.9708 7.33398H9.6604V8.48039H15.9708V7.33398Z" fill="#484848"/>
<path d="M15.9708 11.5381H9.6604V12.6845H15.9708V11.5381Z" fill="#484848"/>
<path d="M13.5168 15.7412H9.6604V16.8876H13.5168V15.7412Z" fill="#484848"/>
</svg>
