<svg width="32" height="32" viewBox="0 0 32 32" fill="none" xmlns="http://www.w3.org/2000/svg">
<path d="M8 12.6667V19.3333M24 12.6667V19.3333M3.40741 8.74075C4.11111 8.37037 10.3704 8 16 8C21.6296 8 27.8889 8.37037 28.5925 8.74075C29.2963 9.11111 30 13.037 30 16C30 18.9629 29.2963 22.8889 28.5925 23.2592C27.8889 23.6296 21.6296 24 16 24C10.3704 24 4.11111 23.6296 3.40741 23.2592C2.70371 22.8889 2 18.9629 2 16C2 13.037 2.70371 9.11111 3.40741 8.74075ZM19.3333 16C19.3333 17.8409 17.8409 19.3333 16 19.3333C14.1591 19.3333 12.6667 17.8409 12.6667 16C12.6667 14.1591 14.1591 12.6667 16 12.6667C17.8409 12.6667 19.3333 14.1591 19.3333 16Z" stroke="#007BFF" stroke-width="2.5" stroke-linecap="round" stroke-linejoin="round"/>
</svg>
