<svg width="23" height="29" viewBox="0 0 23 29" fill="none" xmlns="http://www.w3.org/2000/svg">
<path d="M4.50684 7.37988C5.18446 7.37995 5.7049 7.97376 5.70508 8.66895C5.70508 9.3647 5.18462 9.95891 4.50684 9.95898H1.99902C1.32114 9.95898 0.799749 9.36477 0.799805 8.66895C0.79998 7.97367 1.32129 7.37988 1.99902 7.37988H4.50684Z" fill="#007BFF" stroke="#007BFF" stroke-width="0.4"/>
<path d="M18.748 0.799805C20.8545 0.800359 22.5324 2.65494 22.5332 4.90723V23.7598C22.5322 26.0119 20.8545 27.8657 18.748 27.8662H4.49414C3.11921 27.8651 2.03495 26.6578 2.03418 25.2031V22.0264H4.30371V25.2031L4.30859 25.2529C4.32942 25.3635 4.41744 25.4285 4.49512 25.4287H18.748C19.1637 25.4283 19.5352 25.2487 19.8145 24.9453C20.0923 24.6408 20.2632 24.228 20.2637 23.7588V4.90723C20.2631 4.43822 20.0922 4.02568 19.8145 3.7207L19.7051 3.61328C19.4413 3.37609 19.1118 3.23868 18.748 3.23828H4.49512L4.42773 3.25391C4.36168 3.28439 4.30396 3.3582 4.30371 3.46387V6.63965H2.03418V3.46387C2.03495 2.00917 3.11922 0.800952 4.49414 0.799805H18.748Z" fill="#007BFF" stroke="#007BFF" stroke-width="0.4"/>
<path d="M4.30371 10.6985V17.968H2.03418V10.6985H4.30371Z" fill="#007BFF" stroke="#007BFF" stroke-width="0.4"/>
<path d="M4.50684 18.7078C5.18468 18.7078 5.70508 19.3025 5.70508 19.9978C5.705 20.693 5.18452 21.2868 4.50684 21.2869H1.99902C1.32123 21.2869 0.799883 20.6931 0.799805 19.9978C0.799805 19.3025 1.32106 18.7078 1.99902 18.7078H4.50684Z" fill="#007BFF" stroke="#007BFF" stroke-width="0.4"/>
<path d="M17.1616 7.91211V9.84082H8.34717V7.91211H17.1616Z" fill="#007BFF" stroke="#007BFF" stroke-width="0.4"/>
<path d="M17.1616 13.5168V15.4456H8.34717V13.5168H17.1616Z" fill="#007BFF" stroke="#007BFF" stroke-width="0.4"/>
<path d="M13.8892 19.1216V21.0503H8.34717V19.1216H13.8892Z" fill="#007BFF" stroke="#007BFF" stroke-width="0.4"/>
</svg>
