<svg width="66" height="66" viewBox="0 0 66 66" fill="none" xmlns="http://www.w3.org/2000/svg">
<path d="M39.3605 26.3112C38.4976 29.2957 37.7127 29.4604 37.2408 29.1461C36.6568 32.3615 34.8892 36.5041 29.1906 36.7214C23.4022 36.2868 21.5681 32.0451 21.0522 28.7792C20.5895 28.7433 19.9777 28.1051 19.3208 25.8332C18.4218 22.7234 19.3766 22.2641 20.1852 22.3384C19.5904 20.7052 19.5785 19.0977 19.9766 17.6116C20.3954 15.8611 21.3615 14.4588 22.4459 13.3749C23.1306 12.6619 23.9072 12.0378 24.7298 11.5274C25.3995 11.0716 26.14 10.682 26.9486 10.4142L26.9496 10.4137C27.5816 10.2045 28.2545 10.0701 28.9671 10.0372C31.1683 9.85078 32.8357 10.39 34.0336 11.0843C35.8213 12.05 36.4998 13.3279 36.4998 13.3279C36.4998 13.3279 40.9989 13.6372 39.0289 22.8669C39.6357 23.0721 40.0622 23.8852 39.3605 26.3112ZM38.2146 54.143C38.0644 53.6685 37.9833 53.1652 37.9833 52.6432C37.9833 52.5739 37.9859 52.5047 37.9916 52.4355L39.1172 38.0332C39.1389 37.7533 39.205 37.4865 39.3062 37.2373C37.4943 36.3212 36.3516 35.5344 36.3516 35.5344L33.2611 45.0992L32.6792 46.8997L32.6704 46.8749L32.1628 48.401L30.5337 43.8768C34.6543 38.2505 29.4421 38.4693 29.4421 38.4693C29.4421 38.4693 24.2299 38.25 28.3505 43.8763L26.7064 48.4358L26.2035 46.8951L22.5326 35.5349C22.5326 35.5349 18.5716 38.2637 13.6971 39.4769C10.0609 40.3815 9.88788 44.4903 10.034 46.5207L10.0159 46.5161C10.0159 46.5161 9.97411 49.3394 10.4383 50.4849C10.4383 50.4849 17.5363 54.9995 29.4246 54.9995L29.4184 54.7372L29.4416 54.9995C32.7546 55 35.6953 54.6488 38.2146 54.143ZM40.7675 52.6432L41.8932 38.2409H44.0996H44.9687V37.4491C44.9842 35.3484 46.7341 33.6445 48.8838 33.6445C51.0334 33.6445 52.7839 35.3489 52.7989 37.4491V38.2409H53.6679H55.1819H55.8743L57 52.6432C57 53.9449 55.9218 55 54.5917 55H48.8843H43.1759C41.8457 55 40.7675 53.9449 40.7675 52.6432ZM51.6024 40.4472C51.6024 40.7635 51.8642 41.0202 52.188 41.0202C52.5118 41.0202 52.7735 40.764 52.7735 40.4472C52.7735 40.1308 52.5118 39.8741 52.188 39.8741C51.8642 39.8741 51.6024 40.1308 51.6024 40.4472ZM46.1393 38.2409H48.8838H51.6283V37.4491H51.6267C51.6267 35.9665 50.3988 34.7643 48.8833 34.7643C47.3682 34.7643 46.1403 35.9665 46.1403 37.4491H46.1388L46.1393 38.2409ZM44.9687 40.4472C44.9687 40.7635 45.231 41.0202 45.5542 41.0202C45.8775 41.0202 46.1398 40.764 46.1398 40.4472C46.1398 40.1308 45.8775 39.8741 45.5542 39.8741C45.231 39.8741 44.9687 40.1308 44.9687 40.4472Z" fill="#1BBCBF"/>
</svg>
