<svg width="20" height="20" viewBox="0 0 20 20" fill="none" xmlns="http://www.w3.org/2000/svg">
<g clip-path="url(#clip0_1175_15269)">
<path d="M3.14737 9.9518C2.35735 8.57426 1.97589 7.4494 1.74588 6.30918C1.4057 4.62282 2.18419 2.97551 3.47383 1.9244C4.01889 1.48016 4.64371 1.63194 4.96602 2.21017L5.69367 3.51559C6.27042 4.55031 6.5588 5.06767 6.5016 5.61616C6.4444 6.16466 6.05549 6.61139 5.27766 7.50484L3.14737 9.9518ZM3.14737 9.9518C4.74644 12.7401 7.25588 15.2509 10.0474 16.8518M10.0474 16.8518C11.4249 17.6418 12.5498 18.0233 13.69 18.2533C15.3764 18.5935 17.0237 17.815 18.0748 16.5254C18.519 15.9803 18.3672 15.3555 17.789 15.0332L16.4836 14.3055C15.4489 13.7288 14.9315 13.4404 14.383 13.4976C13.8345 13.5548 13.3878 13.9437 12.4943 14.7215L10.0474 16.8518Z" stroke="white" stroke-width="1.5" stroke-linejoin="round"/>
</g>
<defs>
<clipPath id="clip0_1175_15269">
<rect width="20" height="20" fill="white"/>
</clipPath>
</defs>
</svg>
