<svg width="37" height="37" viewBox="0 0 37 37" fill="none" xmlns="http://www.w3.org/2000/svg">
<rect width="37" height="37" rx="18.5" fill="#DCFCE7" fill-opacity="0.5"/>
<path d="M13.0776 21.9816C11.6628 22.824 7.95336 24.5441 10.2127 26.6966C11.3163 27.748 12.5455 28.5 14.0909 28.5H22.9091C24.4545 28.5 25.6837 27.748 26.7873 26.6966C29.0466 24.5441 25.3372 22.824 23.9224 21.9816C20.6048 20.0061 16.3952 20.0061 13.0776 21.9816Z" stroke="#1A7A5E" stroke-width="1.5" stroke-linecap="round" stroke-linejoin="round"/>
<path d="M23 13C23 15.4853 20.9853 17.5 18.5 17.5C16.0147 17.5 14 15.4853 14 13C14 10.5147 16.0147 8.5 18.5 8.5C20.9853 8.5 23 10.5147 23 13Z" stroke="#212B36" stroke-width="1.5"/>
</svg>
