<svg width="66" height="66" viewBox="0 0 66 66" fill="none" xmlns="http://www.w3.org/2000/svg">
<path fill-rule="evenodd" clip-rule="evenodd" d="M49.0394 29.712L54.6646 33.7561C54.8977 33.924 55.0243 34.2051 54.9961 34.4922C54.968 34.7814 54.7872 35.0321 54.526 35.1514L38.4545 42.4307C38.1692 42.5581 37.8398 42.5116 37.6027 42.3073L32.5 37.9052L27.3973 42.3073C27.1602 42.5116 26.8307 42.5581 26.5455 42.4307L10.474 35.1514C10.2128 35.0321 10.032 34.7813 10.0039 34.4922C9.97575 34.2051 10.1023 33.924 10.3353 33.7561L15.9606 29.712C15.9667 29.7079 15.9727 29.7039 15.9767 29.6998C16.035 29.6614 16.0952 29.6311 16.1595 29.6068L22.6421 27.2814C21.7542 25.6617 21.25 23.8013 21.25 21.8237C21.25 15.5756 26.2924 10.5 32.5 10.5C38.7077 10.5 43.7501 15.5755 43.7501 21.8237C43.7501 23.8013 43.2459 25.6617 42.3579 27.2814L48.8406 29.6068C48.9048 29.6311 48.9651 29.6614 49.0214 29.6998C49.0274 29.7039 49.0333 29.7079 49.0394 29.712ZM18.6983 30.4136L32.4998 35.9681L46.3013 30.4136L41.4557 28.6746C39.3985 31.3923 36.1523 33.1475 32.4999 33.1475C28.8474 33.1475 25.6012 31.3923 23.544 28.6746L18.6983 30.4136ZM34.9144 22.6327H38.5948C39.0367 22.6327 39.3983 22.2708 39.3983 21.8239C39.3983 21.377 39.0367 21.0151 38.5948 21.0151H34.9144C34.6613 20.2527 34.0626 19.6481 33.3032 19.3934V13.6448C33.3032 13.1999 32.9436 12.838 32.4997 12.838C32.0557 12.838 31.6961 13.1999 31.6961 13.6448V19.3934C30.6856 19.7331 29.9563 20.6915 29.9563 21.8239C29.9563 23.2374 31.0954 24.3839 32.4997 24.3839C33.6227 24.3839 34.5769 23.6498 34.9144 22.6327ZM32.4997 20.8796C33.018 20.8796 33.4358 21.3042 33.4358 21.8239C33.4358 22.3436 33.018 22.7662 32.4997 22.7662C31.9813 22.7662 31.5635 22.3436 31.5635 21.8239C31.5635 21.3042 31.9813 20.8796 32.4997 20.8796ZM49.3745 38.3707V47.3914C49.3745 47.7048 49.1937 47.9899 48.9125 48.1234L33.3027 55.5V39.6628L37.0775 42.9204C37.5496 43.3289 38.2166 43.4259 38.7831 43.1691L49.3745 38.3707ZM31.6958 39.6628V55.5L16.1206 48.1234C15.8393 47.9879 15.6605 47.7048 15.6605 47.3914L15.6404 38.379L26.2152 43.1693C26.7818 43.4261 27.4487 43.3291 27.9208 42.9206L31.6958 39.6628Z" fill="#1C2B52"/>
</svg>
