<svg width="14" height="14" viewBox="0 0 14 14" fill="none" xmlns="http://www.w3.org/2000/svg">
<path d="M6.53125 4.53011H6.90625V1.19678H6.53125H6.15625V4.53011H6.53125Z" fill="#212B36"/>
<path d="M8.53125 2.53027L6.53125 0.530273L4.53125 2.53027" stroke="#212B36" stroke-width="0.75"/>
<path d="M6.53125 8.53027H6.15625V11.8636H6.53125H6.90625V8.53027H6.53125Z" fill="#212B36"/>
<path d="M8.53125 10.5303L6.53125 12.5303L4.53125 10.5303" stroke="#212B36" stroke-width="0.75"/>
<path d="M8.53125 6.53027L8.53125 6.90527L11.8646 6.90527L11.8646 6.53027L11.8646 6.15527L8.53125 6.15527L8.53125 6.53027Z" fill="#212B36"/>
<path d="M10.5312 8.53027L12.5313 6.53027L10.5313 4.53027" stroke="#212B36" stroke-width="0.75"/>
<path d="M4.53255 6.53027L4.53255 6.15527L1.19922 6.15527L1.19922 6.53027L1.19922 6.90527L4.53255 6.90527L4.53255 6.53027Z" fill="#212B36"/>
<path d="M2.53125 8.53027L0.53125 6.53027L2.53125 4.53027" stroke="#212B36" stroke-width="0.75"/>
</svg>
