<svg width="33" height="40" viewBox="0 0 33 40" fill="none" xmlns="http://www.w3.org/2000/svg">
<g clip-path="url(#clip0_447_4991)">
<mask id="mask0_447_4991" style="mask-type:luminance" maskUnits="userSpaceOnUse" x="0" y="0" width="33" height="34">
<path d="M0.13916 0.0390625H32.5558V33.1655H0.13916V0.0390625Z" fill="white"/>
</mask>
<g mask="url(#mask0_447_4991)">
<path d="M16.3557 0.074505C16.3655 0.0528297 16.382 0.0419922 16.4052 0.0419922C16.428 0.0419922 16.4446 0.0528297 16.4548 0.074505L25.4332 18.3701C25.456 18.4172 25.4874 18.4563 25.5279 18.4876C25.5684 18.5189 25.6133 18.5389 25.6628 18.5472C28.0558 18.9524 30.3174 19.6839 32.4476 20.7418C32.5621 20.7989 32.5558 20.8273 32.4291 20.826C30.5411 20.8094 28.5808 20.9073 26.548 21.1207C25.5826 21.222 24.6309 21.365 23.693 21.5492C20.059 22.2628 16.6396 23.375 13.4354 24.8864C8.83628 27.0556 4.44128 29.9475 0.229539 33.1105C0.17173 33.1542 0.152854 33.1405 0.17291 33.0684C0.215381 32.9079 0.273583 32.7557 0.347121 32.6111C0.880373 31.5749 1.41009 30.5215 1.93547 29.4498C6.72884 19.6731 11.5356 9.88129 16.3557 0.074505ZM16.34 9.96716C14.7886 13.1288 13.2576 16.2501 11.7479 19.3304C11.6921 19.4446 11.6477 19.5659 11.6146 19.6943C11.6083 19.7189 11.6138 19.7402 11.6315 19.7581C11.6492 19.7756 11.6697 19.7806 11.6925 19.7723C14.459 18.7952 17.3089 18.2596 20.2426 18.1654C20.2627 18.1654 20.2796 18.165 20.2937 18.1641C20.3043 18.1633 20.315 18.1612 20.3252 18.1579C20.3354 18.1541 20.3452 18.1496 20.3543 18.1433C20.3633 18.1375 20.3716 18.1304 20.3791 18.122C20.3865 18.1137 20.3928 18.1045 20.3983 18.0945C20.4034 18.0849 20.4074 18.0741 20.4105 18.0633C20.4133 18.0524 20.4145 18.0412 20.4148 18.0295C20.4148 18.0183 20.4137 18.007 20.4113 17.9957C20.4089 17.9849 20.405 17.9741 20.4003 17.9641C19.1832 15.501 17.9082 12.9058 16.5755 10.1789C16.5346 10.0947 16.4807 10.0197 16.4135 9.9534C16.3836 9.92464 16.3588 9.92881 16.34 9.96716Z" fill="#007BFF"/>
</g>
<mask id="mask1_447_4991" style="mask-type:luminance" maskUnits="userSpaceOnUse" x="20" y="22" width="13" height="12">
<path d="M20.2747 22.4946H32.7581V33.2522H20.2747V22.4946Z" fill="white"/>
</mask>
<g mask="url(#mask1_447_4991)">
<path d="M32.6052 33.1886L20.4132 29.0878C20.368 29.0728 20.3554 29.0428 20.3762 28.9978C20.4557 28.8244 20.5438 28.663 20.6401 28.5138C22.1435 26.2008 23.9993 24.4093 26.2078 23.1396C26.6069 22.9112 26.9841 22.7324 27.3396 22.6032C27.3608 22.5952 27.3828 22.5919 27.4052 22.5923C27.428 22.5927 27.4497 22.5977 27.4705 22.6065C27.4914 22.6152 27.5102 22.6278 27.5271 22.6436C27.5437 22.6594 27.5574 22.6782 27.568 22.6994L32.676 33.0998C32.7197 33.1903 32.6961 33.2198 32.6052 33.1886Z" fill="#007BFF"/>
</g>
<path d="M7.53406 39.8498H7.59227V39.9165H5.56937V39.8498H5.62757C5.71959 39.8498 5.78802 39.8198 5.83206 39.7598C5.87689 39.6989 5.8997 39.6414 5.8997 39.588C5.8997 39.5338 5.88908 39.4797 5.86824 39.4263L5.55679 38.5993H4.07501L3.74467 39.4263C3.72344 39.4842 3.71321 39.5393 3.71321 39.5914C3.71321 39.6426 3.73602 39.6989 3.78243 39.7598C3.82962 39.8198 3.89922 39.8498 3.99164 39.8498H4.04197V39.9165H2.68604V39.8498H2.74266C2.84019 39.8498 2.93693 39.819 3.03367 39.7564C3.1312 39.6931 3.21181 39.5989 3.27592 39.473L4.74039 35.9599C4.93859 35.5164 5.04398 35.223 5.05657 35.0796H5.1132L6.99609 39.4597C7.05901 39.5897 7.13924 39.6877 7.23676 39.7531C7.33429 39.8177 7.43339 39.8498 7.53406 39.8498ZM4.18197 38.3175H5.44982L4.83477 36.6652L4.18197 38.3175Z" fill="#2F2F2F"/>
<path d="M10.84 35.2144H12.196V35.281H12.1393C12.0418 35.281 11.9443 35.3127 11.8467 35.3761C11.75 35.4386 11.6698 35.5324 11.6061 35.6579L10.1038 39.1709C9.90958 39.6144 9.80655 39.9079 9.79397 40.0513H9.73734L7.81669 35.6645C7.75259 35.5391 7.67197 35.444 7.57444 35.3794C7.4777 35.314 7.379 35.281 7.27714 35.281H7.22681V35.2144H9.24184V35.281H9.1915C9.09909 35.281 9.03027 35.3119 8.98544 35.3728C8.94139 35.4328 8.91937 35.4895 8.91937 35.5428C8.91937 35.5962 8.92763 35.6504 8.94454 35.7045L10.0221 38.479L11.1373 35.7045C11.1582 35.6458 11.1688 35.5908 11.1688 35.5395C11.1688 35.4886 11.1468 35.4328 11.1027 35.3728C11.0587 35.3119 10.9898 35.281 10.8966 35.281H10.84V35.2144Z" fill="#2F2F2F"/>
<path d="M16.6829 39.8498H16.7411V39.9165H14.7182V39.8498H14.7764C14.8684 39.8498 14.9368 39.8198 14.9809 39.7598C15.0257 39.6989 15.0485 39.6414 15.0485 39.588C15.0485 39.5338 15.0379 39.4797 15.017 39.4263L14.7056 38.5993H13.2238L12.8935 39.4263C12.8722 39.4842 12.862 39.5393 12.862 39.5914C12.862 39.6426 12.8848 39.6989 12.9312 39.7598C12.9784 39.8198 13.048 39.8498 13.1404 39.8498H13.1908V39.9165H11.8348V39.8498H11.8915C11.989 39.8498 12.0857 39.819 12.1825 39.7564C12.28 39.6931 12.3606 39.5989 12.4247 39.473L13.8892 35.9599C14.0874 35.5164 14.1928 35.223 14.2054 35.0796H14.262L16.1449 39.4597C16.2078 39.5897 16.288 39.6877 16.3856 39.7531C16.4831 39.8177 16.5822 39.8498 16.6829 39.8498ZM13.3308 38.3175H14.5986L13.9836 36.6652L13.3308 38.3175Z" fill="#2F2F2F"/>
<path d="M19.1352 35.4894V39.4327C19.1392 39.5494 19.1801 39.6486 19.2579 39.7294C19.3366 39.8095 19.4309 39.8495 19.5411 39.8495H19.6166L19.6229 39.9162H17.6959V39.8495H17.7793C17.8839 39.8495 17.9751 39.8095 18.053 39.7294C18.1316 39.6486 18.1757 39.5519 18.1851 39.4393V35.4894H17.3294C17.1343 35.494 16.9794 35.559 16.8654 35.6845C16.7521 35.8104 16.6955 35.9738 16.6955 36.1747V36.2547H16.631V35.0859C16.8048 35.1626 17.0545 35.2035 17.3797 35.2077H19.9343C20.0641 35.2077 20.2064 35.1943 20.3606 35.1676C20.5155 35.1401 20.6225 35.1126 20.6815 35.0859V36.2547H20.6186V36.1747C20.6186 35.8971 20.5187 35.6995 20.3197 35.5828C20.2273 35.5253 20.1156 35.494 19.9846 35.4894H19.1352Z" fill="#2F2F2F"/>
<path d="M25.4403 39.8498H25.4985V39.9165H23.4756V39.8498H23.5338C23.6258 39.8498 23.6943 39.8198 23.7383 39.7598C23.7831 39.6989 23.806 39.6414 23.806 39.588C23.806 39.5338 23.7953 39.4797 23.7745 39.4263L23.463 38.5993H21.9813L21.6509 39.4263C21.6297 39.4842 21.6195 39.5393 21.6195 39.5914C21.6195 39.6426 21.6423 39.6989 21.6887 39.7598C21.7359 39.8198 21.8055 39.8498 21.8979 39.8498H21.9482V39.9165H20.5923V39.8498H20.6489C20.7464 39.8498 20.8432 39.819 20.9399 39.7564C21.0374 39.6931 21.1181 39.5989 21.1822 39.473L22.6466 35.9599C22.8448 35.5164 22.9502 35.223 22.9628 35.0796H23.0194L24.9023 39.4597C24.9653 39.5897 25.0455 39.6877 25.143 39.7531C25.2405 39.8177 25.3396 39.8498 25.4403 39.8498ZM22.0882 38.3175H23.3561L22.741 36.6652L22.0882 38.3175Z" fill="#2F2F2F"/>
<path d="M27.3169 35.5095H27.0447C27.0361 35.5095 27.0298 35.5095 27.0259 35.5095V39.426C27.0298 39.5427 27.0707 39.6428 27.1486 39.7261C27.2272 39.8087 27.3216 39.8495 27.4317 39.8495H27.5135V39.9162H25.5865V39.8495H25.6699C25.8217 39.8495 25.9377 39.7803 26.0176 39.6411C26.0522 39.5777 26.0714 39.5086 26.0758 39.4327V35.7045C26.0714 35.5878 26.0301 35.4886 25.9515 35.4061C25.8728 35.3227 25.7788 35.281 25.6699 35.281H25.5865V35.2144H27.7605C28.1702 35.2144 28.5171 35.3086 28.8002 35.4961C28.9438 35.5908 29.0574 35.7221 29.1416 35.8896C29.2265 36.0576 29.269 36.2773 29.269 36.5482C29.269 36.8183 29.1801 37.0793 29.0031 37.3302C28.8258 37.5803 28.5678 37.7237 28.2292 37.7604C28.4746 37.845 28.6901 38.0417 28.8757 38.3506C29.3319 39.1255 29.6701 39.5869 29.8903 39.7345C30.0004 39.807 30.1377 39.8453 30.3024 39.8495V39.9162H29.6811C29.3138 39.9162 29.0086 39.8654 28.7656 39.7628C28.5222 39.6594 28.3307 39.4777 28.1915 39.2176C28.1116 39.07 27.9366 38.687 27.6661 38.0688C27.5473 37.7954 27.4038 37.6453 27.2351 37.6186V37.5519H27.4317C27.6212 37.5519 27.7892 37.4915 27.9351 37.3702C28.0806 37.2493 28.1789 37.0517 28.2292 36.7783C28.2469 36.6849 28.256 36.6112 28.256 36.5566C28.256 36.1897 28.186 35.9246 28.0467 35.7612C27.9071 35.5978 27.7274 35.5141 27.5072 35.5095C27.4651 35.5095 27.4018 35.5095 27.3169 35.5095Z" fill="#2F2F2F"/>
</g>
<defs>
<clipPath id="clip0_447_4991">
<rect width="33" height="40" fill="white"/>
</clipPath>
</defs>
</svg>
