<svg width="0" height="0" class="hidden">
  <symbol fill="none" xmlns="http://www.w3.org/2000/svg" viewBox="0 0 59 59" id="arrow_upward">
    <path d="M32.5286 49L32.5286 21.9971L44.625 34.0018L44.625 24.9982L29.5026 10L14.3801 24.9982L14.3801 34.0018L26.4765 21.9971L26.4765 49L32.5286 49Z" fill="#00C7BE"></path>
  </symbol>
  <symbol fill="none" xmlns="http://www.w3.org/2000/svg" viewBox="0 0 59 59" id="arrow-right">
    <path d="M10 32.5247L37.0029 32.5247L24.9982 44.6211H34.0018L49 29.4986L34.0018 14.3762H24.9982L37.0029 26.4726L10 26.4726V32.5247Z" fill="#FFCC00"></path>
  </symbol>
  <symbol fill="none" xmlns="http://www.w3.org/2000/svg" viewBox="0 0 59 59" id="arrow-down">
    <path d="M26.4714 10L26.4714 37.0029L14.375 24.9982L14.375 34.0018L29.4974 49L44.6199 34.0018V24.9982L32.5235 37.0029L32.5235 10H26.4714Z" fill="#FF3B30"></path>
  </symbol>
   <symbol fill="none" xmlns="http://www.w3.org/2000/svg" viewBox="0 0 59 59" id="arrow_upward2">
    <path d="M32.5286 49L32.5286 21.9971L44.625 34.0018L44.625 24.9982L29.5026 10L14.3801 24.9982L14.3801 34.0018L26.4765 21.9971L26.4765 49L32.5286 49Z" fill="#8E8E93"></path>
  </symbol>
   <symbol fill="none" xmlns="http://www.w3.org/2000/svg" viewBox="0 0 59 59" id="arrow-right2">
    <path d="M10 32.5247L37.0029 32.5247L24.9982 44.6211H34.0018L49 29.4986L34.0018 14.3762H24.9982L37.0029 26.4726L10 26.4726V32.5247Z" fill="#8E8E93"></path>
  </symbol>
  <symbol fill="none" xmlns="http://www.w3.org/2000/svg" viewBox="0 0 59 59" id="arrow-down2">
    <path d="M26.4714 10L26.4714 37.0029L14.375 24.9982L14.375 34.0018L29.4974 49L44.6199 34.0018V24.9982L32.5235 37.0029L32.5235 10H26.4714Z" fill="#8E8E93"></path>
  </symbol>
  <symbol fill="none" xmlns="http://www.w3.org/2000/svg" viewBox="0 0 59 59" id="triangle-green">
    <path d="M35.1009 17.1891L48.5041 35.7914C49.1257 36.6542 49.4688 37.6448 49.498 38.6607C49.5271 39.6766 49.2412 40.6807 48.6699 41.569C48.0986 42.4573 47.2626 43.1975 46.2487 43.7128C45.2347 44.2282 44.0796 44.5 42.9031 44.5H16.0969C14.9204 44.5 13.7653 44.2282 12.7513 43.7128C11.7374 43.1975 10.9014 42.4573 10.3301 41.569C9.75876 40.6807 9.47287 39.6766 9.50203 38.6607C9.53119 37.6448 9.87434 36.6542 10.4959 35.7914L23.8991 17.1873C24.4914 16.3652 25.3165 15.6871 26.2965 15.2169C27.2764 14.7467 28.379 14.5 29.5 14.5C30.621 14.5 31.7236 14.7467 32.7035 15.2169C33.6835 15.6871 34.5086 16.3652 35.1009 17.1873V17.1891Z" fill="#00C7BE"></path>
  </symbol>
  <symbol fill="none" xmlns="http://www.w3.org/2000/svg" viewBox="0 0 59 59" id="triangle-red">
    <path d="M35.1009 17.1891L48.5041 35.7914C49.1257 36.6542 49.4688 37.6448 49.498 38.6607C49.5271 39.6766 49.2412 40.6807 48.6699 41.569C48.0986 42.4573 47.2626 43.1975 46.2487 43.7128C45.2347 44.2282 44.0796 44.5 42.9031 44.5H16.0969C14.9204 44.5 13.7653 44.2282 12.7513 43.7128C11.7374 43.1975 10.9014 42.4573 10.3301 41.569C9.75876 40.6807 9.47287 39.6766 9.50203 38.6607C9.53119 37.6448 9.87434 36.6542 10.4959 35.7914L23.8991 17.1873C24.4914 16.3652 25.3165 15.6871 26.2965 15.2169C27.2764 14.7467 28.379 14.5 29.5 14.5C30.621 14.5 31.7236 14.7467 32.7035 15.2169C33.6835 15.6871 34.5086 16.3652 35.1009 17.1873V17.1891Z" fill="#FF3B30"></path>
  </symbol>
  <symbol fill="none" xmlns="http://www.w3.org/2000/svg" viewBox="0 0 59 59" id="bar">
    <rect x="10" y="23" width="39" height="13" fill="#FFCC00"></rect>
  </symbol>
  <symbol fill="none" xmlns="http://www.w3.org/2000/svg" viewBox="0 0 59 59" id="arrow-diagonal-up">
    <path d="M17.8537 45.43L36.9477 26.336L37.0126 43.3781L43.379 37.0116L43.2912 15.7131L21.9926 15.6252L15.6262 21.9917L32.6683 22.0565L13.5743 41.1505L17.8537 45.43Z" fill="#8E8E93"></path>
  </symbol>
  <symbol fill="none" xmlns="http://www.w3.org/2000/svg" viewBox="0 0 59 59" id="arrow-diagonal-down">
    <path d="M13.57 17.8498L32.664 36.9438L15.6219 37.0087L21.9884 43.3751L43.2869 43.2873L43.3748 21.9887L37.0083 15.6223L36.9435 32.6643L17.8495 13.5704L13.57 17.8498Z" fill="#8E8E93"></path>
  </symbol>
   <symbol fill="none" xmlns="http://www.w3.org/2000/svg" viewBox="0 0 59 59" id="arrow-diagonal-up2">
    <path d="M17.8537 45.43L36.9477 26.336L37.0126 43.3781L43.379 37.0116L43.2912 15.7131L21.9926 15.6252L15.6262 21.9917L32.6683 22.0565L13.5743 41.1505L17.8537 45.43Z" fill="#FFCC00"></path>
  </symbol>
  <symbol fill="none" xmlns="http://www.w3.org/2000/svg" viewBox="0 0 59 59" id="arrow-diagonal-down2">
    <path d="M13.57 17.8498L32.664 36.9438L15.6219 37.0087L21.9884 43.3751L43.2869 43.2873L43.3748 21.9887L37.0083 15.6223L36.9435 32.6643L17.8495 13.5704L13.57 17.8498Z" fill="#FFCC00"></path>
  </symbol>
  <symbol fill="none" xmlns="http://www.w3.org/2000/svg" viewBox="0 0 59 59" id="green-circle">
    <path d="M29.5 14.5C21.2157 14.5 14.5 21.2157 14.5 29.5C14.5 37.7843 21.2157 44.5 29.5 44.5C37.7843 44.5 44.5 37.7843 44.5 29.5C44.5 21.2157 37.7843 14.5 29.5 14.5Z" fill="#00C7BE"></path>
  </symbol>
   <symbol fill="none" xmlns="http://www.w3.org/2000/svg" viewBox="0 0 59 59" id="yellow-circle">
    <path d="M29.5 14.5C21.2157 14.5 14.5 21.2157 14.5 29.5C14.5 37.7843 21.2157 44.5 29.5 44.5C37.7843 44.5 44.5 37.7843 44.5 29.5C44.5 21.2157 37.7843 14.5 29.5 14.5Z" fill="#FFCC00"></path>
  </symbol>
  <symbol fill="none" xmlns="http://www.w3.org/2000/svg" viewBox="0 0 59 59" id="red-circle">
    <path d="M29.5 14.5C21.2157 14.5 14.5 21.2157 14.5 29.5C14.5 37.7843 21.2157 44.5 29.5 44.5C37.7843 44.5 44.5 37.7843 44.5 29.5C44.5 21.2157 37.7843 14.5 29.5 14.5Z" fill="#FF3B30"></path>
  </symbol>
  <symbol fill="none" xmlns="http://www.w3.org/2000/svg" viewBox="0 0 31 31" id="green-circle-bg">
    <rect x="0.5" y="0.5" width="30" height="30" rx="5" fill="black"></rect>
    <path d="M15.5051 5.0625C9.74212 5.0625 5.07031 9.73431 5.07031 15.4973C5.07031 21.2603 9.74212 25.9321 15.5051 25.9321C21.2681 25.9321 25.9399 21.2603 25.9399 15.4973C25.9399 9.73431 21.2681 5.0625 15.5051 5.0625Z" fill="#00C7BE"></path>
  </symbol>
  <symbol fill="none" xmlns="http://www.w3.org/2000/svg" viewBox="0 0 31 31" id="yellow-circle-bg">
    <rect x="0.5" y="0.5" width="30" height="30" rx="5" fill="black"></rect>
    <path d="M15.5051 5.0625C9.74212 5.0625 5.07031 9.73431 5.07031 15.4973C5.07031 21.2603 9.74212 25.9321 15.5051 25.9321C21.2681 25.9321 25.9399 21.2603 25.9399 15.4973C25.9399 9.73431 21.2681 5.0625 15.5051 5.0625Z" fill="#FFCC00"></path>
  </symbol>
  <symbol fill="none" xmlns="http://www.w3.org/2000/svg" viewBox="0 0 31 31" id="red-circle-bg">
    <rect x="0.5" y="0.5" width="30" height="30" rx="5" fill="black"></rect>
    <path d="M15.5051 5.0625C9.74212 5.0625 5.07031 9.73431 5.07031 15.4973C5.07031 21.2603 9.74212 25.9321 15.5051 25.9321C21.2681 25.9321 25.9399 21.2603 25.9399 15.4973C25.9399 9.73431 21.2681 5.0625 15.5051 5.0625Z" fill="#FF3B30"></path>
  </symbol>
  <symbol fill="none" xmlns="http://www.w3.org/2000/svg" viewBox="0 0 59 59" id="yellow-triangle">
    <path fill-rule="evenodd" clip-rule="evenodd" d="M46.3365 42.7147L38.4281 28.9043L30.5197 15.0939C30.4174 14.9104 30.2688 14.7575 30.0889 14.6507C29.9107 14.5541 29.7119 14.5025 29.5096 14.5001C29.3072 14.4977 29.1073 14.5447 28.9269 14.637L28.9032 14.6514C28.7234 14.7583 28.5748 14.9112 28.4725 15.0947L20.5629 28.9043L12.6545 42.7147C12.5007 42.99 12.4598 43.315 12.5404 43.6203C12.6211 43.9256 12.8169 44.187 13.086 44.3487C13.2674 44.4508 13.4722 44.5029 13.6799 44.4999H45.3127C45.511 44.5026 45.7069 44.4553 45.8825 44.3624L45.9061 44.348C46.0417 44.2701 46.1605 44.1658 46.2557 44.0411C46.3509 43.9165 46.4205 43.774 46.4606 43.622C46.5006 43.4699 46.5103 43.3114 46.489 43.1556C46.4677 42.9998 46.4158 42.8501 46.3365 42.7147Z" fill="#FFCC00"></path>
  </symbol>
  <symbol fill="none" xmlns="http://www.w3.org/2000/svg" viewBox="0 0 59 59" id="rhombus">
    <rect x="10" y="29.5" width="30" height="30" rx="6" transform="rotate(-45 10 29.5)" fill="#FF3B30"></rect>
  </symbol>
  <symbol fill="none" xmlns="http://www.w3.org/2000/svg" viewBox="0 0 59 59" id="dark-gray-circle">
    <path d="M29.5 14.5C21.2157 14.5 14.5 21.2157 14.5 29.5C14.5 37.7843 21.2157 44.5 29.5 44.5C37.7843 44.5 44.5 37.7843 44.5 29.5C44.5 21.2157 37.7843 14.5 29.5 14.5Z" fill="#484848"></path>
  </symbol>
   <symbol fill="none" xmlns="http://www.w3.org/2000/svg" viewBox="0 0 59 59" id="peach-circle">
    <path d="M29.5 14.5C21.2157 14.5 14.5 21.2157 14.5 29.5C14.5 37.7843 21.2157 44.5 29.5 44.5C37.7843 44.5 44.5 37.7843 44.5 29.5C44.5 21.2157 37.7843 14.5 29.5 14.5Z" fill="#EBB2A6"></path>
  </symbol>
  <symbol fill="none" xmlns="http://www.w3.org/2000/svg" viewBox="0 0 59 59" id="gray-circle">
    <path d="M29.5 14.5C21.2157 14.5 14.5 21.2157 14.5 29.5C14.5 37.7843 21.2157 44.5 29.5 44.5C37.7843 44.5 44.5 37.7843 44.5 29.5C44.5 21.2157 37.7843 14.5 29.5 14.5Z" fill="#8E8E93"></path>
  </symbol>
  <symbol fill="none" xmlns="http://www.w3.org/2000/svg" viewBox="0 0 59 59" id="check-circle">
    <path d="M29.5 14.5C21.2157 14.5 14.5 21.2157 14.5 29.5C14.5 37.7843 21.2157 44.5 29.5 44.5C37.7843 44.5 44.5 37.7843 44.5 29.5C44.5 21.2157 37.7843 14.5 29.5 14.5Z" fill="#00C7BE"></path>
    <path d="M26.0029 32.2689L21.136 27.4398L18.5 30.0554L26.0029 37.5L40.5 23.1155L37.864 20.5L26.0029 32.2689Z" fill="white"></path>
  </symbol>
  <symbol fill="none" xmlns="http://www.w3.org/2000/svg" viewBox="0 0 59 59" id="warning-circle">
    <path d="M29.5 14.5C21.2157 14.5 14.5 21.2157 14.5 29.5C14.5 37.7843 21.2157 44.5 29.5 44.5C37.7843 44.5 44.5 37.7843 44.5 29.5C44.5 21.2157 37.7843 14.5 29.5 14.5Z" fill="#FFCC00"></path>
    <path d="M27.5009 20.5H32.5L31.3635 33.25H28.6365L27.5 20.5H27.5009ZM30.0005 34.4088C28.9968 34.4088 28.1825 35.1011 28.1825 35.9544C28.1825 36.8077 28.9968 37.5 30.0005 37.5C31.0042 37.5 31.8185 36.8077 31.8185 35.9544C31.8185 35.1011 31.0042 34.4088 30.0005 34.4088Z" fill="white"></path>
  </symbol>
  <symbol fill="none" xmlns="http://www.w3.org/2000/svg" viewBox="0 0 59 59" id="cross-circle">
    <path d="M29.5 14.5C21.2157 14.5 14.5 21.2157 14.5 29.5C14.5 37.7843 21.2157 44.5 29.5 44.5C37.7843 44.5 44.5 37.7843 44.5 29.5C44.5 21.2157 37.7843 14.5 29.5 14.5Z" fill="#FF3B30"></path>
    <path fill-rule="evenodd" clip-rule="evenodd" d="M35.6667 21.5L38.5 24.3333L32.8333 30L38.5 35.6667L35.6667 38.5L30 32.8333L24.3333 38.5L21.5 35.6667L27.1667 30L21.5 24.3333L24.3333 21.5L30 27.1667L35.6667 21.5Z" fill="white"></path>
  </symbol>
  <symbol fill="none" xmlns="http://www.w3.org/2000/svg" viewBox="0 0 59 59" id="checkmark">
    <path d="M23.4595 35.2686L15.0531 26.7468L10.5 31.3624L23.4596 44.5L48.5 19.1157L43.9469 14.5L23.4595 35.2686Z" fill="#00C7BE"></path>
  </symbol>
  <symbol fill="none" xmlns="http://www.w3.org/2000/svg" viewBox="0 0 59 59" id="warning">
    <path d="M25.5015 14.5H33.5L31.6816 37.0001H27.3184L25.5 14.5H25.5015ZM29.5008 39.0449C27.8948 39.0449 26.592 40.2666 26.592 41.7725C26.592 43.2783 27.8948 44.5 29.5008 44.5C31.1067 44.5 32.4096 43.2783 32.4096 41.7725C32.4096 40.2666 31.1067 39.0449 29.5008 39.0449Z" fill="#FFCC00"></path>
  </symbol>
  <symbol fill="none" xmlns="http://www.w3.org/2000/svg" viewBox="0 0 59 59" id="crossmark">
    <path fill-rule="evenodd" clip-rule="evenodd" d="M39.5 14.5L44.5 19.5L34.5 29.5L44.5 39.5L39.5 44.5L29.5 34.5L19.5 44.5L14.5 39.5L24.5 29.5L14.5 19.5L19.5 14.5L29.5 24.5L39.5 14.5Z" fill="#FF3B30"></path>
  </symbol>
  <symbol fill="none" xmlns="http://www.w3.org/2000/svg" viewBox="0 0 59 59" id="green-flag">
    <path d="M41.4109 20.7016L18.3129 11.5724C18.3129 11.5724 18.3121 11.572 18.3113 11.572L18.3002 11.5676C18.292 11.5644 18.2829 11.564 18.2747 11.5608C18.2188 11.5404 18.1608 11.5252 18.1 11.5152C18.0758 11.5112 18.0515 11.51 18.0268 11.508C17.9997 11.5056 17.973 11.5 17.9446 11.5C17.9249 11.5 17.9068 11.5044 17.8875 11.5056C17.8612 11.5072 17.8353 11.5096 17.8094 11.5132C17.7609 11.52 17.7144 11.5308 17.6688 11.5444C17.6474 11.5508 17.6265 11.5556 17.6055 11.5636C17.5401 11.588 17.4777 11.6176 17.4205 11.6548C17.4193 11.6556 17.4181 11.6556 17.4172 11.6564L17.4168 11.6568C17.3584 11.6952 17.3067 11.7412 17.2586 11.7908C17.2429 11.8068 17.2302 11.824 17.2158 11.8408C17.185 11.8776 17.157 11.9156 17.1324 11.9568C17.1204 11.9768 17.1089 11.9964 17.0987 12.0172C17.0765 12.0612 17.0592 12.1072 17.0444 12.1544C17.0386 12.1736 17.0308 12.1916 17.0263 12.2112C17.0103 12.2784 17 12.3472 17 12.4192V30.6872V46.5808C17 47.0884 17.423 47.5 17.9446 47.5C18.4663 47.5 18.8892 47.0884 18.8892 46.5808V31.306L41.4109 22.4048C41.7669 22.264 42 21.9272 42 21.5532C42 21.1792 41.7669 20.8424 41.4109 20.7016Z" fill="#00C7BE"></path>
  </symbol>
  <symbol fill="none" xmlns="http://www.w3.org/2000/svg" viewBox="0 0 59 59" id="yellow-flag">
    <path d="M40.9345 20.7016L18.7604 11.5724C18.7604 11.5724 18.7596 11.572 18.7588 11.572L18.7482 11.5676C18.7403 11.5644 18.7316 11.564 18.7237 11.5608C18.67 11.5404 18.6144 11.5252 18.556 11.5152C18.5327 11.5112 18.5094 11.51 18.4858 11.508C18.4597 11.5056 18.4341 11.5 18.4068 11.5C18.3879 11.5 18.3705 11.5044 18.352 11.5056C18.3267 11.5072 18.3019 11.5096 18.277 11.5132C18.2304 11.52 18.1858 11.5308 18.142 11.5444C18.1215 11.5508 18.1014 11.5556 18.0813 11.5636C18.0185 11.588 17.9585 11.6176 17.9037 11.6548C17.9025 11.6556 17.9013 11.6556 17.9005 11.6564L17.9001 11.6568C17.8441 11.6952 17.7944 11.7412 17.7482 11.7908C17.7332 11.8068 17.721 11.824 17.7072 11.8408C17.6776 11.8776 17.6507 11.9156 17.6271 11.9568C17.6156 11.9768 17.6046 11.9964 17.5947 12.0172C17.5734 12.0612 17.5568 12.1072 17.5426 12.1544C17.5371 12.1736 17.5296 12.1916 17.5253 12.2112C17.5099 12.2784 17.5 12.3472 17.5 12.4192V30.6872V46.5808C17.5 47.0884 17.9061 47.5 18.4068 47.5C18.9076 47.5 19.3137 47.0884 19.3137 46.5808V31.306L40.9345 22.4048C41.2763 22.264 41.5 21.9272 41.5 21.5532C41.5 21.1792 41.2763 20.8424 40.9345 20.7016Z" fill="#FFCC00"></path>
  </symbol>
   <symbol fill="none" xmlns="http://www.w3.org/2000/svg" viewBox="0 0 59 59" id="red-flag">
    <path d="M40.9345 20.7016L18.7604 11.5724C18.7604 11.5724 18.7596 11.572 18.7588 11.572L18.7482 11.5676C18.7403 11.5644 18.7316 11.564 18.7237 11.5608C18.67 11.5404 18.6144 11.5252 18.556 11.5152C18.5327 11.5112 18.5094 11.51 18.4858 11.508C18.4597 11.5056 18.4341 11.5 18.4068 11.5C18.3879 11.5 18.3705 11.5044 18.352 11.5056C18.3267 11.5072 18.3019 11.5096 18.277 11.5132C18.2304 11.52 18.1858 11.5308 18.142 11.5444C18.1215 11.5508 18.1014 11.5556 18.0813 11.5636C18.0185 11.588 17.9585 11.6176 17.9037 11.6548C17.9025 11.6556 17.9013 11.6556 17.9005 11.6564L17.9001 11.6568C17.8441 11.6952 17.7944 11.7412 17.7482 11.7908C17.7332 11.8068 17.721 11.824 17.7072 11.8408C17.6776 11.8776 17.6507 11.9156 17.6271 11.9568C17.6156 11.9768 17.6046 11.9964 17.5947 12.0172C17.5734 12.0612 17.5568 12.1072 17.5426 12.1544C17.5371 12.1736 17.5296 12.1916 17.5253 12.2112C17.5099 12.2784 17.5 12.3472 17.5 12.4192V30.6872V46.5808C17.5 47.0884 17.9061 47.5 18.4068 47.5C18.9076 47.5 19.3137 47.0884 19.3137 46.5808V31.306L40.9345 22.4048C41.2763 22.264 41.5 21.9272 41.5 21.5532C41.5 21.1792 41.2763 20.8424 40.9345 20.7016Z" fill="#FF3B30"></path>
  </symbol>
  <symbol fill="none" xmlns="http://www.w3.org/2000/svg" viewBox="0 0 59 59" id="star-filled">
    <path d="M20.886 44.4609C20.5345 44.4609 20.1829 44.3437 19.8704 44.1094C19.2454 43.6406 19.011 42.8984 19.2454 42.1562L21.9407 33.875C22.0579 33.5234 21.9407 33.0937 21.6282 32.8984L14.597 27.7812C13.972 27.3125 13.7376 26.5703 13.972 25.8281C14.2063 25.0859 14.8704 24.6172 15.6126 24.6172H24.3235C24.7141 24.6172 25.0657 24.3828 25.1829 23.9922L27.8782 15.7109C28.1126 14.9687 28.7766 14.5 29.5188 14.5C30.261 14.5 30.9251 14.9687 31.1595 15.7109L33.8157 24.0312C33.9329 24.3828 34.2845 24.6562 34.6751 24.6562H43.386C44.1673 24.6562 44.7923 25.125 45.0267 25.8672C45.261 26.6094 45.0266 27.3516 44.4016 27.8203L37.3704 32.9375C37.0579 33.1719 36.9407 33.5625 37.0579 33.9141L39.7532 42.1953C39.9876 42.9375 39.7532 43.6797 39.1282 44.1484C38.5032 44.6172 37.722 44.6172 37.097 44.1484L30.0657 39.0312C29.7532 38.7969 29.3235 38.7969 29.011 39.0312L21.9798 44.1484C21.5891 44.3437 21.2376 44.4609 20.886 44.4609Z" fill="#FFCC00"></path>
  </symbol>
  <symbol fill="none" xmlns="http://www.w3.org/2000/svg" viewBox="0 0 59 59" id="star-half-filled">
    <path d="M44.4508 26.1567C44.3181 25.6978 43.9373 25.3678 43.4815 25.3108L34.3308 24.1919L30.5573 15.2229C30.5486 15.2049 30.5371 15.1869 30.5284 15.1689C30.514 15.1359 30.4967 15.1059 30.4794 15.0759C30.4621 15.0459 30.4448 15.0189 30.4246 14.992C30.4044 14.965 30.3871 14.938 30.364 14.914C30.3409 14.887 30.3179 14.863 30.2948 14.839C30.2717 14.815 30.2486 14.794 30.2255 14.773C30.1996 14.752 30.1736 14.731 30.1448 14.71C30.1188 14.692 30.0928 14.674 30.0669 14.659C30.0351 14.641 30.0063 14.626 29.9717 14.611C29.9457 14.599 29.9197 14.587 29.8909 14.575C29.8534 14.56 29.8188 14.551 29.7813 14.539C29.764 14.536 29.7495 14.527 29.7351 14.524C29.7236 14.521 29.7149 14.521 29.7034 14.521C29.6659 14.515 29.6284 14.509 29.588 14.506C29.5591 14.503 29.5303 14.5 29.5014 14.5C29.4668 14.5 29.4322 14.503 29.3976 14.506C29.363 14.509 29.3312 14.512 29.2995 14.518C29.288 14.521 29.2735 14.521 29.262 14.524C29.2418 14.527 29.2245 14.536 29.2072 14.542C29.1754 14.551 29.1437 14.56 29.112 14.572C29.0802 14.584 29.0485 14.599 29.0197 14.611C28.9908 14.623 28.9648 14.638 28.9389 14.653C28.9072 14.671 28.8783 14.689 28.8523 14.71C28.8264 14.728 28.8033 14.746 28.7802 14.767C28.7543 14.788 28.7283 14.812 28.7052 14.836L28.6389 14.905C28.6158 14.932 28.5956 14.959 28.5754 14.986C28.5552 15.013 28.5379 15.04 28.5206 15.067C28.5033 15.0969 28.486 15.1299 28.4715 15.1599C28.4629 15.1779 28.4513 15.1929 28.4427 15.2109L24.6692 24.1799L15.5185 25.2988C15.0626 25.3558 14.6818 25.6858 14.5491 26.1447C14.4164 26.6037 14.5578 27.0986 14.9097 27.4076L21.8711 33.533L19.7248 43.0149C19.618 43.4829 19.794 43.9748 20.1661 44.2598C20.3681 44.4128 20.6075 44.4908 20.847 44.4908C21.0518 44.4908 21.2566 44.4338 21.4413 44.3198L29.4986 39.2983L37.5589 44.329C37.7406 44.443 37.9484 44.5 38.1532 44.5C38.3926 44.5 38.6321 44.422 38.834 44.269C39.2091 43.9841 39.3822 43.4951 39.2754 43.0241L37.1291 33.5422L44.0904 27.4168C44.4424 27.1079 44.5835 26.6126 44.4508 26.1567ZM35.1011 32.1861C34.7693 32.4771 34.6251 32.939 34.7232 33.377L36.4051 40.8101L30.6527 37.2224V21.4381L32.4788 25.7815C32.6432 26.1715 32.9952 26.4415 33.402 26.4925L40.5708 27.3684L35.1011 32.1861Z" fill="#FFCC00"></path>
  </symbol>
  <symbol fill="none" xmlns="http://www.w3.org/2000/svg" viewBox="0 0 59 59" id="star-empty">
    <path d="M29.5186 15.5C29.8288 15.5 30.1043 15.6899 30.2061 16.0117L30.207 16.0146L32.8633 24.335L32.8672 24.3477C33.1133 25.0857 33.8315 25.6561 34.6748 25.6562H43.3857C43.7216 25.6562 43.9674 25.8333 44.0732 26.168C44.1806 26.5079 44.0842 26.8066 43.8027 27.0186L36.7822 32.1289L36.7764 32.1328L36.7705 32.1377C36.1568 32.598 35.8888 33.3645 36.0674 34.0869L36.1094 34.2305L38.7998 42.4951V42.4961C38.9073 42.8366 38.811 43.1367 38.5283 43.3486C38.259 43.5506 37.9666 43.5505 37.6973 43.3486L37.6914 43.3438L37.6855 43.3398L30.6543 38.2227H30.6533C30.0282 37.7615 29.1887 37.7351 28.5391 38.1436L28.4229 38.2227L21.4697 43.2822C21.1774 43.4223 21.0051 43.4609 20.8857 43.4609C20.7626 43.4609 20.6196 43.4212 20.4707 43.3096C20.1881 43.0976 20.0917 42.7975 20.1992 42.457L20.1982 42.4561L22.8896 34.1914C23.1199 33.5008 22.9388 32.584 22.2158 32.0908L22.2168 32.0898L15.1943 26.9795C14.9136 26.7676 14.8186 26.4684 14.9258 26.1289C15.0275 25.8073 15.3022 25.6173 15.6123 25.6172H24.3232C25.1108 25.6172 25.8717 25.1363 26.1328 24.3008L26.1338 24.3018L28.8291 16.0205L28.832 16.0117C28.9338 15.6901 29.2085 15.5001 29.5186 15.5Z" stroke="#484848" stroke-width="2"></path>
  </symbol>
  <symbol fill="none" xmlns="http://www.w3.org/2000/svg" viewBox="0 0 59 59" id="bar-chart">
    <rect x="15.5" y="30" width="7" height="14" fill="#D9D9D9" stroke="#484848"></rect>
    <rect x="22.5" y="25" width="7" height="19" fill="#D9D9D9" stroke="#484848"></rect>
    <rect x="29.5" y="20" width="7" height="24" fill="#D9D9D9" stroke="#484848"></rect>
    <rect x="36.5" y="15" width="7" height="29" fill="#D9D9D9" stroke="#484848"></rect>
  </symbol>
  <symbol fill="none" xmlns="http://www.w3.org/2000/svg" viewBox="0 0 59 59" id="bar-chart1">
    <rect x="15.5" y="30" width="7" height="14" fill="#3586FC" stroke="#484848"></rect>
    <rect x="22.5" y="25" width="7" height="19" fill="#D9D9D9" stroke="#484848"></rect>
    <rect x="29.5" y="20" width="7" height="24" fill="#D9D9D9" stroke="#484848"></rect>
    <rect x="36.5" y="15" width="7" height="29" fill="#D9D9D9" stroke="#484848"></rect>
  </symbol>
  <symbol fill="none" xmlns="http://www.w3.org/2000/svg" viewBox="0 0 59 59" id="bar-chart2">
    <rect x="15.5" y="30" width="7" height="14" fill="#3586FC" stroke="#484848"></rect>
    <rect x="22.5" y="25" width="7" height="19" fill="#3586FC" stroke="#484848"></rect>
    <rect x="29.5" y="20" width="7" height="24" fill="#D9D9D9" stroke="#484848"></rect>
    <rect x="36.5" y="15" width="7" height="29" fill="#D9D9D9" stroke="#484848"></rect>
  </symbol>
  <symbol fill="none" xmlns="http://www.w3.org/2000/svg" viewBox="0 0 59 59" id="bar-chart3">
    <rect x="15.5" y="30" width="7" height="14" fill="#3586FC" stroke="#484848"></rect>
    <rect x="22.5" y="25" width="7" height="19" fill="#3586FC" stroke="#484848"></rect>
    <rect x="29.5" y="20" width="7" height="24" fill="#3586FC" stroke="#484848"></rect>
    <rect x="36.5" y="15" width="7" height="29" fill="#D9D9D9" stroke="#484848"></rect>
  </symbol>
  <symbol fill="none" xmlns="http://www.w3.org/2000/svg" viewBox="0 0 59 59" id="bar-chart4">
    <rect x="15.5" y="30" width="7" height="14" fill="#3586FC" stroke="#484848"></rect>
    <rect x="22.5" y="25" width="7" height="19" fill="#3586FC" stroke="#484848"></rect>
    <rect x="29.5" y="20" width="7" height="24" fill="#3586FC" stroke="#484848"></rect>
    <rect x="36.5" y="15" width="7" height="29" fill="#3586FC" stroke="#484848"></rect>
  </symbol>
  <symbol fill="none" xmlns="http://www.w3.org/2000/svg" viewBox="0 0 59 59" id="quarter-circle">
    <path d="M29.5 44.5C37.7843 44.5 44.5 37.7843 44.5 29.5C44.5 21.2157 37.7843 14.5 29.5 14.5C21.2157 14.5 14.5 21.2157 14.5 29.5C14.5 37.7843 21.2157 44.5 29.5 44.5Z" fill="#484848"></path>
    <mask id="path-2-inside-1_8518_81892" fill="white">
      <path d="M15 30C15 28.0302 15.388 26.0796 16.1418 24.2597C16.8956 22.4399 18.0005 20.7863 19.3934 19.3934C20.7863 18.0005 22.4399 16.8956 24.2597 16.1418C26.0796 15.388 28.0302 15 30 15L30 30H15Z"></path>
    </mask>
    <path d="M15 30C15 28.0302 15.388 26.0796 16.1418 24.2597C16.8956 22.4399 18.0005 20.7863 19.3934 19.3934C20.7863 18.0005 22.4399 16.8956 24.2597 16.1418C26.0796 15.388 28.0302 15 30 15L30 30H15Z" fill="white" stroke="#484848" stroke-width="2" mask="url(#path-2-inside-1_8518_81892)"></path>
  </symbol>
  <symbol fill="none" xmlns="http://www.w3.org/2000/svg" viewBox="0 0 59 59" id="half-circle">
    <path d="M29.5 44.5C21.2158 44.5 14.5 37.7842 14.5 29.5C14.5 21.2158 21.2158 14.5 29.5 14.5L29.5 44.5Z" fill="#484848"></path>
    <path d="M44.4805 30.2719C43.9351 38.2891 37.4824 44.2981 29.5 44.5C21.2158 44.5 14.5 37.7842 14.5 29.5C14.5 21.2158 21.2158 14.5 29.5 14.5C37.7842 14.5 44.5 21.2158 44.5 29.5L44.4805 30.2719ZM43.3 29.5C43.3 21.8785 37.1215 15.7 29.5 15.7C21.8785 15.7 15.7 21.8785 15.7 29.5C15.7 37.1215 21.8785 43.3 29.5 43.3C37.1215 43.3 43.3 37.1215 43.3 29.5Z" fill="#484848"></path>
  </symbol>
  <symbol fill="none" xmlns="http://www.w3.org/2000/svg" viewBox="0 0 59 53" id="pie">
    <path d="M29.5 11.5C21.2157 11.5 14.5 18.2157 14.5 26.5C14.5 34.7843 21.2157 41.5 29.5 41.5C37.7843 41.5 44.5 34.7843 44.5 26.5C44.5 18.2157 37.7843 11.5 29.5 11.5Z" fill="#484848"></path>
    <mask id="path-2-inside-1_8518_81900" fill="white">
      <path d="M44.0078 26.9961C44.0078 29.9628 43.1281 32.8629 41.4799 35.3297C39.8316 37.7964 37.489 39.719 34.7481 40.8543C32.0072 41.9896 28.9912 42.2867 26.0815 41.7079C23.1717 41.1291 20.499 39.7005 18.4012 37.6027C16.3034 35.5049 14.8748 32.8322 14.296 29.9224C13.7173 27.0127 14.0143 23.9967 15.1496 21.2558C16.2849 18.515 18.2075 16.1723 20.6743 14.5241C23.141 12.8758 26.0411 11.9961 29.0078 11.9961L29.0078 26.9961L44.0078 26.9961Z"></path>
    </mask>
    <path d="M44.0078 26.9961C44.0078 29.9628 43.1281 32.8629 41.4799 35.3297C39.8316 37.7964 37.489 39.719 34.7481 40.8543C32.0072 41.9896 28.9912 42.2867 26.0815 41.7079C23.1717 41.1291 20.499 39.7005 18.4012 37.6027C16.3034 35.5049 14.8748 32.8322 14.296 29.9224C13.7173 27.0127 14.0143 23.9967 15.1496 21.2558C16.2849 18.515 18.2075 16.1723 20.6743 14.5241C23.141 12.8758 26.0411 11.9961 29.0078 11.9961L29.0078 26.9961L44.0078 26.9961Z" fill="white" stroke="#484848" stroke-width="2" mask="url(#path-2-inside-1_8518_81900)"></path>
  </symbol>
  <symbol fill="none" xmlns="http://www.w3.org/2000/svg" viewBox="0 0 59 59" id="circle-white">
    <path d="M29.5 15.5C37.232 15.5 43.5 21.768 43.5 29.5C43.5 37.232 37.232 43.5 29.5 43.5C21.768 43.5 15.5 37.232 15.5 29.5C15.5 21.768 21.768 15.5 29.5 15.5Z" stroke="#484848" stroke-width="2"></path>
  </symbol>
  <symbol fill="none" xmlns="http://www.w3.org/2000/svg" viewBox="0 0 59 59" id="square-4">
    <rect x="14.75" y="14.75" width="14.9286" height="14.9286" fill="#3586FC" stroke="black" stroke-width="0.5"></rect>
    <rect x="14.75" y="29.3203" width="14.9286" height="14.9286" fill="#3586FC" stroke="black" stroke-width="0.5"></rect>
    <rect x="29.3203" y="14.75" width="14.9286" height="14.9286" fill="#3586FC" stroke="black" stroke-width="0.5"></rect>
    <rect x="29.3203" y="29.3203" width="14.9286" height="14.9286" fill="#3586FC" stroke="black" stroke-width="0.5"></rect>
  </symbol>
  <symbol fill="none" xmlns="http://www.w3.org/2000/svg" viewBox="0 0 59 59" id="square-3">
    <rect x="14.75" y="14.75" width="14.9286" height="14.9286" fill="#3586FC" stroke="black" stroke-width="0.5"></rect>
    <rect x="14.75" y="29.3203" width="14.9286" height="14.9286" fill="#3586FC" stroke="black" stroke-width="0.5"></rect>
    <rect x="29.3203" y="14.75" width="14.9286" height="14.9286" fill="#D9D9D9" stroke="black" stroke-width="0.5"></rect>
    <rect x="29.3203" y="29.3203" width="14.9286" height="14.9286" fill="#3586FC" stroke="black" stroke-width="0.5"></rect>
  </symbol>
  <symbol fill="none" xmlns="http://www.w3.org/2000/svg" viewBox="0 0 59 59" id="square-2">
    <rect x="14.75" y="14.75" width="14.9286" height="14.9286" fill="#D9D9D9" stroke="black" stroke-width="0.5"></rect>
    <rect x="14.75" y="29.3203" width="14.9286" height="14.9286" fill="#3586FC" stroke="black" stroke-width="0.5"></rect>
    <rect x="29.3203" y="14.75" width="14.9286" height="14.9286" fill="#D9D9D9" stroke="black" stroke-width="0.5"></rect>
    <rect x="29.3203" y="29.3203" width="14.9286" height="14.9286" fill="#3586FC" stroke="black" stroke-width="0.5"></rect>
  </symbol>
  <symbol fill="none" xmlns="http://www.w3.org/2000/svg" viewBox="0 0 59 59" id="square-1">
    <rect x="14.75" y="14.75" width="14.9286" height="14.9286" fill="#D9D9D9" stroke="black" stroke-width="0.5"></rect>
    <rect x="14.75" y="29.3203" width="14.9286" height="14.9286" fill="#3586FC" stroke="black" stroke-width="0.5"></rect>
    <rect x="29.3203" y="14.75" width="14.9286" height="14.9286" fill="#D9D9D9" stroke="black" stroke-width="0.5"></rect>
    <rect x="29.3203" y="29.3203" width="14.9286" height="14.9286" fill="#D9D9D9" stroke="black" stroke-width="0.5"></rect>
  </symbol>
    <symbol fill="none" xmlns="http://www.w3.org/2000/svg" viewBox="0 0 59 59" id="square">
    <rect x="14.75" y="14.75" width="14.9286" height="14.9286" fill="#D9D9D9" stroke="black" stroke-width="0.5"></rect>
    <rect x="14.75" y="29.3203" width="14.9286" height="14.9286" fill="#D9D9D9" stroke="black" stroke-width="0.5"></rect>
    <rect x="29.3203" y="14.75" width="14.9286" height="14.9286" fill="#D9D9D9" stroke="black" stroke-width="0.5"></rect>
    <rect x="29.3203" y="29.3203" width="14.9286" height="14.9286" fill="#D9D9D9" stroke="black" stroke-width="0.5"></rect>
  </symbol>
  <symbol fill="none" xmlns="http://www.w3.org/2000/svg" viewBox="0 0 24 24" id="pdf">
    <path d="M20.572 6.60244V21.9998H3.86719V2H15.9696L18.1132 4.1437L20.572 6.60244Z" fill="#B12A27"></path>
    <path d="M11.4413 3.33984H3.42969V6.92452H11.4413V3.33984Z" fill="#F2F2F2"></path>
    <path d="M6.30003 4.5139C6.26468 4.42851 6.21757 4.35195 6.15281 4.28719C6.08804 4.22242 6.00851 4.16941 5.91722 4.13406C5.823 4.09578 5.71699 4.07812 5.59922 4.07812H4.71875V6.35136H5.1634V5.49445H5.59922C5.71699 5.49445 5.823 5.47679 5.91722 5.43851C6.00851 5.40316 6.088 5.35019 6.15281 5.28539C6.21761 5.22062 6.26472 5.14699 6.30003 5.05867C6.33242 4.97328 6.35011 4.88199 6.35011 4.78777C6.35007 4.69058 6.33242 4.59929 6.30003 4.5139ZM5.82004 5.01152C5.76113 5.06746 5.67871 5.09691 5.57859 5.09691H5.1634V4.47265H5.57859C5.67871 4.47265 5.76117 4.50211 5.82004 4.56097C5.87597 4.61691 5.90543 4.69347 5.90543 4.78769C5.90546 4.87902 5.87601 4.95558 5.82004 5.01152Z" fill="#B12A27"></path>
    <path d="M8.4273 4.95855C8.42437 4.87906 8.4214 4.8084 8.41257 4.74359C8.40374 4.67879 8.38902 4.61992 8.36839 4.56398C8.34777 4.51098 8.32128 4.45797 8.28593 4.41086C8.20644 4.29601 8.10925 4.21062 8.00031 4.15762C7.88839 4.10461 7.75589 4.07812 7.59984 4.07812H6.78125V6.35136H7.59984C7.75589 6.35136 7.88839 6.32487 8.00031 6.27187C8.10925 6.21886 8.20644 6.13347 8.28593 6.01863C8.32128 5.97152 8.34777 5.91851 8.36839 5.8655C8.38902 5.80956 8.40374 5.75066 8.41257 5.68589C8.4214 5.62113 8.42433 5.55042 8.4273 5.47093C8.43023 5.39437 8.43023 5.30898 8.43023 5.21476C8.43023 5.12054 8.43023 5.03511 8.4273 4.95855ZM7.98265 5.44445C7.98265 5.51218 7.97675 5.56519 7.97085 5.6123C7.96496 5.65648 7.95613 5.69769 7.94437 5.72714C7.93261 5.75953 7.91492 5.78898 7.89433 5.81546C7.8207 5.90968 7.70882 5.95386 7.5616 5.95386H7.22297V4.47269H7.5616C7.70882 4.47269 7.82074 4.5198 7.89433 4.61402C7.91496 4.64051 7.93261 4.66703 7.94437 4.69941C7.95613 4.73179 7.965 4.77008 7.97085 4.81718C7.97675 4.86136 7.98265 4.9173 7.98265 4.98207C7.98558 5.04687 7.98558 5.12636 7.98558 5.21468C7.98562 5.30308 7.98562 5.37964 7.98265 5.44445Z" fill="#B12A27"></path>
    <path d="M10.3269 4.47269V4.07812H8.82812V6.35136H9.27277V5.42972H10.1709V5.03218H9.27277V4.47269H10.3269Z" fill="#B12A27"></path>
    <path d="M6.30003 4.5139C6.26468 4.42851 6.21757 4.35195 6.15281 4.28719C6.08804 4.22242 6.00851 4.16941 5.91722 4.13406C5.823 4.09578 5.71699 4.07812 5.59922 4.07812H4.71875V6.35136H5.1634V5.49445H5.59922C5.71699 5.49445 5.823 5.47679 5.91722 5.43851C6.00851 5.40316 6.088 5.35019 6.15281 5.28539C6.21761 5.22062 6.26472 5.14699 6.30003 5.05867C6.33242 4.97328 6.35011 4.88199 6.35011 4.78777C6.35007 4.69058 6.33242 4.59929 6.30003 4.5139ZM5.82004 5.01152C5.76113 5.06746 5.67871 5.09691 5.57859 5.09691H5.1634V4.47265H5.57859C5.67871 4.47265 5.76117 4.50211 5.82004 4.56097C5.87597 4.61691 5.90543 4.69347 5.90543 4.78769C5.90546 4.87902 5.87601 4.95558 5.82004 5.01152Z" fill="#B12A27"></path>
    <path opacity="0.08" d="M20.572 6.60327V22.0007H3.86719V18.3906L11.6763 10.5815L12.1386 10.1192L12.3948 9.86295L12.8218 9.436L13.3282 8.92951L18.1132 4.14453L20.572 6.60327Z" fill="#040000"></path>
    <path d="M20.5717 6.60295H15.9688V2L20.5717 6.60295Z" fill="#771B1B"></path>
    <path d="M18.1894 16.4796C18.0922 16.3088 17.9597 16.1469 17.7948 15.9997C17.6594 15.876 17.5004 15.7611 17.3207 15.6551C16.5963 15.2282 15.5628 15.022 14.1582 15.022H14.0169C13.9403 14.9514 13.8608 14.8807 13.7783 14.8071C13.2454 14.3271 12.8214 13.8059 12.4916 13.2258C13.1394 11.7977 13.4485 10.5256 13.4103 9.44199C13.4044 9.25941 13.3779 9.08863 13.3308 8.9296C13.2601 8.67343 13.1423 8.44668 12.9774 8.26117C12.9745 8.25824 12.9745 8.25824 12.9715 8.25527C12.7094 7.96082 12.3443 7.79297 11.9733 7.79297C11.5993 7.79297 11.2548 7.95492 11.0045 8.25234C10.7571 8.54679 10.6246 8.95023 10.6187 9.42429C10.6099 10.1487 10.6688 10.8348 10.7925 11.4678C10.8043 11.5179 10.8131 11.568 10.8249 11.618C10.9486 12.1922 11.1311 12.7369 11.3667 13.2434C11.0899 13.8058 10.8102 14.2917 10.6158 14.6215C10.4686 14.8718 10.3066 15.1339 10.1388 15.3959C9.382 15.5314 8.74004 15.6963 8.18059 15.9024C7.42384 16.1763 6.81724 16.5296 6.38142 16.9507C6.09873 17.2216 5.90732 17.5102 5.8131 17.8105C5.71298 18.1197 5.71888 18.4289 5.83076 18.7057C5.9338 18.9619 6.11931 19.1768 6.36669 19.3241C6.4256 19.3594 6.48743 19.3888 6.5522 19.4153C6.74068 19.4919 6.94677 19.5331 7.16173 19.5331C7.65938 19.5331 8.17173 19.3182 8.60458 18.9324C9.41141 18.211 10.2447 17.0508 10.7365 16.3176C11.1399 16.2558 11.5786 16.2027 12.0734 16.1497C12.6564 16.0908 13.1717 16.0555 13.6399 16.0378C13.7842 16.1674 13.9226 16.2911 14.0551 16.4088C14.7913 17.0655 15.3507 17.5396 15.8572 17.8723C15.8572 17.8752 15.8601 17.8752 15.8631 17.8752C16.0633 18.0077 16.2547 18.1167 16.4461 18.205C16.6611 18.3052 16.879 18.3582 17.1028 18.3582C17.3855 18.3582 17.6505 18.2728 17.8713 18.1167C18.0951 17.9548 18.2571 17.7222 18.3307 17.4601C18.4161 17.1451 18.3661 16.7947 18.1894 16.4796ZM11.6788 10.5816C11.6376 10.2164 11.6199 9.83656 11.6258 9.43609C11.6317 9.05625 11.7701 8.80003 11.9733 8.80003C12.1264 8.80003 12.2884 8.93843 12.3619 9.20343C12.3826 9.28292 12.3973 9.37421 12.4002 9.47726C12.4061 9.60093 12.4032 9.7305 12.3973 9.863C12.3796 10.237 12.3148 10.6345 12.203 11.0615C12.1352 11.3353 12.0469 11.621 11.938 11.9183C11.8143 11.5003 11.7259 11.0556 11.6788 10.5816ZM6.7672 18.3318C6.71712 18.2081 6.7731 17.9696 7.07935 17.6751C7.54755 17.2275 8.28075 16.8742 9.30254 16.6062C9.10821 16.8712 8.9168 17.1127 8.73129 17.3335C8.4486 17.6751 8.1777 17.9637 7.93329 18.1816C7.72423 18.37 7.49454 18.4878 7.27665 18.5173C7.23837 18.5232 7.20009 18.5261 7.16181 18.5261C6.97036 18.5261 6.81431 18.4496 6.7672 18.3318ZM11.4727 15.2017L11.4933 15.1693L11.4609 15.1752C11.4668 15.1604 11.4757 15.1457 11.4845 15.134C11.6082 14.9249 11.7642 14.6569 11.9321 14.3477L11.9468 14.3801L11.9851 14.3006C12.1087 14.4773 12.2442 14.6511 12.3855 14.8189C12.4533 14.8984 12.5239 14.9749 12.5946 15.0515L12.5475 15.0544L12.5887 15.0927C12.468 15.1015 12.3414 15.1133 12.2147 15.1251C12.1352 15.1339 12.0528 15.1398 11.9703 15.1486C11.7996 15.1663 11.6317 15.184 11.4727 15.2017ZM16.4285 17.0391C16.0781 16.8153 15.6865 16.5002 15.2035 16.0791C15.8896 16.1498 16.4285 16.3 16.8113 16.5238C16.9792 16.6209 17.1058 16.7211 17.1911 16.8182C17.3325 16.9684 17.3826 17.1038 17.356 17.1951C17.3325 17.2864 17.2294 17.3482 17.1028 17.3482C17.0292 17.3482 16.9526 17.3306 16.8731 17.2923C16.7376 17.2275 16.5963 17.148 16.4461 17.0509C16.4403 17.0509 16.4344 17.045 16.4285 17.0391Z" fill="#F2F2F2"></path>
  </symbol>
  <symbol fill="none" xmlns="http://www.w3.org/2000/svg" viewBox="0 0 24 24" id="ppt">
    <path d="M12.5386 2H13.8583V4.09304C16.3467 4.107 18.8374 4.06737 21.3234 4.10458C21.8588 4.05341 22.2778 4.4696 22.2244 5.00449C22.2638 9.34872 22.2151 13.6952 22.2476 18.0418C22.2244 18.5116 22.2942 19.0325 22.0242 19.4487C21.6843 19.6952 21.2421 19.6627 20.8439 19.6813C18.5162 19.6697 16.1884 19.6744 13.8583 19.6744V22H12.4106C8.86315 21.3535 5.3086 20.7628 1.75889 20.1395C1.75647 14.714 1.75889 9.28825 1.75889 3.86495C5.35031 3.24429 8.9421 2.61173 12.5386 2Z" fill="#D24625"></path>
    <path d="M13.8614 4.79297H21.543V18.9791H13.8614V17.1187H19.448V16.1884H13.8614V15.0256H19.448V14.0954H13.8638C13.8614 13.6396 13.8614 13.1837 13.8594 12.7279C14.7812 13.0139 15.8309 13.007 16.6549 12.4533C17.5465 11.9255 18.0121 10.9184 18.0888 9.91376C17.067 9.90669 16.045 9.90911 15.0255 9.90911C15.0232 8.89738 15.037 7.88583 15.0046 6.87652C14.6229 6.95094 14.2411 7.03001 13.8616 7.11132L13.8614 4.79297Z" fill="white"></path>
    <path d="M15.4873 6.39062C17.1052 6.46504 18.4644 7.82543 18.5506 9.43717C17.5287 9.44889 16.5069 9.44423 15.4849 9.44423C15.4849 8.42562 15.4827 7.40701 15.4873 6.39062Z" fill="#D24625"></path>
    <path d="M5.49601 8.14552C6.76006 8.20598 8.29172 7.64542 9.3392 8.59203C10.3425 9.80841 10.0772 12.0455 8.58967 12.7737C8.06136 13.0432 7.45615 13.0062 6.88111 12.9874C6.87868 13.8968 6.87664 14.806 6.87868 15.7154C6.4171 15.6754 5.95539 15.6366 5.49359 15.5992C5.47273 13.1152 5.46826 10.6293 5.49601 8.14552Z" fill="white"></path>
    <path d="M6.87929 9.40334C7.33795 9.38232 7.90592 9.29878 8.2156 9.72893C8.48096 10.1847 8.467 10.7848 8.24577 11.2545C7.98041 11.7336 7.37985 11.6871 6.91654 11.7429C6.86756 10.9637 6.8724 10.1846 6.87929 9.40334Z" fill="#D24625"></path>
  </symbol>
  <symbol fill="none" xmlns="http://www.w3.org/2000/svg" viewBox="0 0 24 24" id="msword">
    <g clip-path="url(#clip0_8176_79272)">
      <path d="M21.1317 3.25H7.90459C7.68539 3.25 7.47518 3.33778 7.32019 3.49402C7.1652 3.65026 7.07812 3.86217 7.07812 4.08312V7.625L14.5181 9.8125L21.9581 7.625V4.08312C21.9581 3.86217 21.8711 3.65026 21.7161 3.49402C21.5611 3.33778 21.3509 3.25 21.1317 3.25Z" fill="#41A5EE"></path>
      <path d="M21.9581 7.625H7.07812V12L14.5181 14.1875L21.9581 12V7.625Z" fill="#2B7CD3"></path>
      <path d="M21.9581 12H7.07812V16.375L14.5181 18.5625L21.9581 16.375V12Z" fill="#185ABD"></path>
      <path d="M21.9581 16.375H7.07812V19.9169C7.07812 20.1378 7.1652 20.3497 7.32019 20.506C7.47518 20.6622 7.68539 20.75 7.90459 20.75H21.1317C21.3509 20.75 21.5611 20.6622 21.7161 20.506C21.8711 20.3497 21.9581 20.1378 21.9581 19.9169V16.375Z" fill="#103F91"></path>
      <path opacity="0.1" d="M12.4517 6.375H7.07812V18.25H12.4517C12.6707 18.2493 12.8805 18.1614 13.0353 18.0053C13.1902 17.8492 13.2775 17.6376 13.2781 17.4169V7.20813C13.2775 6.98737 13.1902 6.77584 13.0353 6.61975C12.8805 6.46365 12.6707 6.37566 12.4517 6.375Z" fill="black"></path>
      <path opacity="0.2" d="M11.8317 7H7.07812V18.875H11.8317C12.0507 18.8743 12.2605 18.7864 12.4153 18.6303C12.5702 18.4742 12.6575 18.2626 12.6581 18.0419V7.83313C12.6575 7.61237 12.5702 7.40084 12.4153 7.24475C12.2605 7.08865 12.0507 7.00066 11.8317 7Z" fill="black"></path>
      <path opacity="0.2" d="M11.8317 7H7.07812V17.625H11.8317C12.0507 17.6243 12.2605 17.5364 12.4153 17.3803C12.5702 17.2242 12.6575 17.0126 12.6581 16.7919V7.83313C12.6575 7.61237 12.5702 7.40084 12.4153 7.24475C12.2605 7.08865 12.0507 7.00066 11.8317 7Z" fill="black"></path>
      <path opacity="0.2" d="M11.2117 7H7.07812V17.625H11.2117C11.4307 17.6243 11.6405 17.5364 11.7953 17.3803C11.9502 17.2242 12.0375 17.0126 12.0381 16.7919V7.83313C12.0375 7.61237 11.9502 7.40084 11.7953 7.24475C11.6405 7.08865 11.4307 7.00066 11.2117 7Z" fill="black"></path>
      <path d="M2.94365 7H11.2107C11.4299 7 11.6401 7.08778 11.7951 7.24402C11.9501 7.40026 12.0372 7.61217 12.0372 7.83313V16.1669C12.0372 16.3878 11.9501 16.5997 11.7951 16.756C11.6401 16.9122 11.4299 17 11.2107 17H2.94365C2.72446 17 2.51424 16.9122 2.35925 16.756C2.20426 16.5997 2.11719 16.3878 2.11719 16.1669V7.83313C2.11719 7.61217 2.20426 7.40026 2.35925 7.24402C2.51424 7.08778 2.72446 7 2.94365 7Z" fill="#185ABD"></path>
      <path d="M9.52863 15.125H8.41263L7.11063 10.8125L5.74663 15.125H4.63063L3.39062 8.875H4.50663L5.37463 13.25L6.67663 9H7.60663L8.84663 13.25L9.71463 8.875H10.7686L9.52863 15.125Z" fill="white"></path>
    </g>
    <defs>
      <clipPath id="clip0_8176_79272">
        <rect width="20" height="20" fill="white" transform="translate(2 2)"></rect>
      </clipPath>
    </defs>
  </symbol>
  <symbol fill="none" xmlns="http://www.w3.org/2000/svg" viewBox="0 0 24 24" id="msexcel">
    <g clip-path="url(#clip0_8176_79287)">
      <path d="M12.4742 2H13.8588V3.86047C16.1923 3.86047 18.5255 3.86512 20.8588 3.8534C21.2528 3.86958 21.6864 3.84186 22.0289 4.07665C22.2689 4.42084 22.2412 4.85805 22.2574 5.2534C22.2458 9.2906 22.2505 13.3256 22.2529 17.3604C22.2413 18.0372 22.3157 18.7278 22.1736 19.3953C22.0804 19.8791 21.4977 19.8906 21.1083 19.907C18.6933 19.9139 16.2762 19.9023 13.8588 19.907V22H12.4112C8.85869 21.3557 5.29913 20.7606 1.74219 20.1395V3.86288C5.32039 3.24186 8.89841 2.63033 12.4742 2Z" fill="#207245"></path>
      <path d="M13.8594 4.55859H21.5517V19.2098H13.8594V17.8144H15.7242V16.1865H13.8594V15.2563H15.7242V13.6284H13.8594V12.6981H15.7242V11.0702H13.8594V10.14H15.7242V8.51208H13.8594V7.58185H15.7242V5.95394H13.8594V4.55859Z" fill="white"></path>
      <path d="M16.6562 5.95312H19.9197V7.58103H16.6562V5.95312Z" fill="#207245"></path>
      <path d="M8.64831 8.13432C9.17512 8.09711 9.70436 8.06455 10.2334 8.03906C9.61197 9.31231 8.98495 10.5828 8.35237 11.8506C8.99349 13.1529 9.64823 14.4459 10.2916 15.7483C9.73043 15.7161 9.16948 15.6805 8.60878 15.6413C8.21251 14.6714 7.72989 13.7343 7.44551 12.7204C7.12868 13.6646 6.67627 14.5552 6.31282 15.4809C5.80224 15.4739 5.29165 15.453 4.78125 15.432C5.38023 14.2623 5.95832 13.0832 6.57595 11.9204C6.05156 10.7226 5.47571 9.54827 4.93491 8.35757C5.44773 8.32725 5.96056 8.29711 6.47338 8.2692C6.82061 9.1786 7.20047 10.0761 7.48747 11.0087C7.79498 10.0205 8.25428 9.09023 8.64831 8.13432Z" fill="white"></path>
      <path d="M16.6562 8.51172H19.9197V10.1396H16.6562V8.51172ZM16.6562 11.0699H19.9197V12.6978H16.6562V11.0699ZM16.6562 13.628H19.9197V15.2559H16.6562V13.628ZM16.6562 16.1861H19.9197V17.814H16.6562V16.1861Z" fill="#207245"></path>
    </g>
    <defs>
      <clipPath id="clip0_8176_79287">
        <rect width="20.5229" height="20" fill="white" transform="translate(1.74219 2)"></rect>
      </clipPath>
    </defs>
  </symbol>
</svg>























