<svg width="34" height="30" viewBox="0 0 34 30" fill="none" xmlns="http://www.w3.org/2000/svg">
<path d="M16.5664 27C23.1938 27 28.5664 21.6274 28.5664 15C28.5664 8.37258 23.1938 3 16.5664 3C9.93899 3 4.56641 8.37258 4.56641 15C4.56641 21.6274 9.93899 27 16.5664 27Z" fill="url(#paint0_linear_294_30586)"/>
<path d="M16.5664 7.85742C13.8044 7.85742 11.5664 9.84884 11.5664 12.3156C11.5664 16.5807 16.5664 22.1431 16.5664 22.1431C16.5664 22.1431 21.5664 16.5798 21.5664 12.3156C21.5664 9.84974 19.3284 7.85742 16.5664 7.85742ZM16.5664 14.7823C15.8503 14.7823 15.1636 14.5281 14.6572 14.0758C14.1509 13.6234 13.8664 13.0098 13.8664 12.3701C13.8664 11.7303 14.1509 11.1167 14.6572 10.6644C15.1636 10.212 15.8503 9.95784 16.5664 9.95784C17.2825 9.95784 17.9692 10.212 18.4756 10.6644C18.9819 11.1167 19.2664 11.7303 19.2664 12.3701C19.2664 13.0098 18.9819 13.6234 18.4756 14.0758C17.9692 14.5281 17.2825 14.7823 16.5664 14.7823Z" fill="url(#paint1_linear_294_30586)"/>
<defs>
<linearGradient id="paint0_linear_294_30586" x1="12.0818" y1="-2.95237" x2="16.5664" y2="27" gradientUnits="userSpaceOnUse">
<stop stop-color="#FEFEFE"/>
<stop offset="1" stop-color="#B7BAC9"/>
</linearGradient>
<linearGradient id="paint1_linear_294_30586" x1="17.7726" y1="22.9626" x2="14.6407" y2="5.21899" gradientUnits="userSpaceOnUse">
<stop stop-color="#6A708B"/>
<stop offset="1" stop-color="#969DB9"/>
</linearGradient>
</defs>
</svg>
