<svg width="37" height="37" viewBox="0 0 37 37" fill="none" xmlns="http://www.w3.org/2000/svg">
<rect width="37" height="37" rx="18.5" fill="#DCFCE7" fill-opacity="0.5"/>
<path d="M26.6932 19.499C28.3501 22.3688 27.3669 26.0383 24.4971 27.6952C21.6273 29.3521 17.9578 28.3688 16.3009 25.499M26.6932 19.499C25.0364 16.6293 21.3669 15.646 18.4971 17.3029C15.6273 18.9598 14.6441 22.6293 16.3009 25.499M26.6932 19.499L16.3009 25.499" stroke="#1A7A5E" stroke-width="1.5"/>
<path d="M16.5428 12.042L21.6278 9.0374C23.5 7.93112 25.894 8.58763 26.9749 10.5038C27.8433 12.0431 27.6 13.9272 26.5 15.1822M16.5428 12.042L11.4579 15.0467C9.58563 16.1529 8.94415 18.6031 10.0251 20.5192C10.675 21.6713 11.7996 22.368 13 22.5M16.5428 12.042L18 14.5" stroke="#1A7A5E" stroke-width="1.5" stroke-linecap="round" stroke-linejoin="round"/>
</svg>
