<svg width="18" height="18" viewBox="0 0 18 18" fill="none" xmlns="http://www.w3.org/2000/svg">
<path d="M16.5 9C16.5 9.82843 15.8284 10.5 15 10.5C13.7574 10.5 12.75 9.49264 12.75 8.25V5.25C12.75 4.00736 13.7574 3 15 3C15.8284 3 16.5 3.67157 16.5 4.5V9Z" fill="#C10007" stroke="#C10007" stroke-width="1.5" stroke-linecap="round" stroke-linejoin="round"/>
<path d="M6.39094 12.5203L6.59067 11.8752C6.75433 11.3467 6.83616 11.0824 6.77323 10.8737C6.72232 10.7048 6.61055 10.5592 6.45825 10.4635C6.26999 10.3451 5.98522 10.3451 5.41566 10.3451H5.11266C3.18512 10.3451 2.22135 10.3451 1.76613 9.77453C1.71411 9.70932 1.66784 9.63998 1.62781 9.56725C1.27761 8.93089 1.67575 8.07365 2.47202 6.35917C3.20273 4.78584 3.56809 3.99917 4.24648 3.53613C4.31216 3.49131 4.37964 3.44903 4.44878 3.40939C5.16297 3 6.04788 3 7.81769 3H8.20155C10.3457 3 11.4178 3 12.0839 3.6454C12.75 4.2908 12.75 5.32955 12.75 7.40705V8.13724C12.75 9.22902 12.75 9.77491 12.5562 10.2746C12.3625 10.7742 11.9915 11.185 11.2495 12.0067L8.18091 15.4046C8.10396 15.4898 8.06547 15.5324 8.03154 15.5619C7.71485 15.8375 7.22608 15.8065 6.9492 15.4932C6.91953 15.4597 6.88712 15.4126 6.82229 15.3183C6.72088 15.171 6.67018 15.0973 6.62599 15.0243C6.23038 14.3707 6.11068 13.5942 6.2919 12.8571C6.31214 12.7748 6.33842 12.6899 6.39094 12.5203Z" fill="#C10007" stroke="#C10007" stroke-width="1.5" stroke-linecap="round" stroke-linejoin="round"/>
</svg>
