<svg width="18" height="18" viewBox="0 0 18 18" fill="none" xmlns="http://www.w3.org/2000/svg">
<path d="M1.5 9C1.5 8.17157 2.17157 7.5 3 7.5C4.24264 7.5 5.25 8.50736 5.25 9.75V12.75C5.25 13.9926 4.24264 15 3 15C2.17157 15 1.5 14.3284 1.5 13.5V9Z" fill="#1A7A5E" stroke="#1A7A5E" stroke-width="1.5" stroke-linecap="round" stroke-linejoin="round"/>
<path d="M11.6091 5.47969L11.4093 6.12476C11.2457 6.65333 11.1638 6.91762 11.2268 7.12635C11.2777 7.29521 11.3894 7.44076 11.5418 7.53653C11.73 7.65491 12.0148 7.65491 12.5843 7.65491H12.8873C14.8149 7.65491 15.7786 7.65491 16.2339 8.22547C16.2859 8.29068 16.3322 8.36002 16.3722 8.43275C16.7224 9.06911 16.3243 9.92635 15.528 11.6408C14.7973 13.2142 14.4319 14.0008 13.7535 14.4639C13.6878 14.5087 13.6204 14.551 13.5512 14.5906C12.837 15 11.9521 15 10.1823 15H9.79845C7.65429 15 6.58221 15 5.9161 14.3546C5.25 13.7092 5.25 12.6705 5.25 10.5929V9.86276C5.25 8.77098 5.25 8.22509 5.44376 7.72545C5.63751 7.22581 6.00851 6.81498 6.75052 5.99334L9.81909 2.59542C9.89604 2.5102 9.93453 2.46759 9.96846 2.43806C10.2852 2.16246 10.7739 2.19348 11.0508 2.50676C11.0805 2.54032 11.1129 2.58743 11.1777 2.68165C11.2791 2.82904 11.3298 2.90273 11.374 2.97574C11.7696 3.62935 11.8893 4.40577 11.7081 5.14286C11.6879 5.22519 11.6616 5.31007 11.6091 5.47969Z" fill="#1A7A5E" stroke="#1A7A5E" stroke-width="1.5" stroke-linecap="round" stroke-linejoin="round"/>
</svg>
