<svg width="66" height="66" viewBox="0 0 66 66" fill="none" xmlns="http://www.w3.org/2000/svg">
<path fill-rule="evenodd" clip-rule="evenodd" d="M36.9718 25.5398L43.6015 26.0335C43.9935 26.0629 44.3129 26.3146 44.4339 26.6935C44.5549 27.0724 44.4436 27.4659 44.1435 27.7225L39.0671 32.0587L40.6496 38.5827C40.7415 38.9689 40.6036 39.3527 40.2867 39.5873C39.9673 39.822 39.5632 39.8367 39.2269 39.6265L33.5746 36.0896L27.9223 39.6265C27.5884 39.8367 27.1819 39.822 26.8649 39.5873C26.5455 39.3527 26.4076 38.9689 26.502 38.5827L28.0844 32.0587L23.008 27.7225C22.708 27.4659 22.5967 27.0723 22.7177 26.6935C22.8387 26.3146 23.1581 26.0629 23.5501 26.0335L30.1798 25.5398L32.6962 19.3215C32.8463 18.9524 33.1802 18.7251 33.5746 18.7251C33.9666 18.7251 34.3053 18.9524 34.4529 19.3215L36.9718 25.5398ZM10 41.56V54.7056C10 54.9256 10.0871 55.1236 10.2299 55.2678C10.3726 55.412 10.571 55.5 10.7864 55.5H16.337C16.5548 55.5 16.7508 55.412 16.8935 55.2678C17.0363 55.1236 17.1234 54.9232 17.1234 54.7056L17.1282 41.56C17.1282 41.3425 17.0387 41.142 16.896 40.9978C16.7532 40.8512 16.5572 40.7632 16.3394 40.7632H10.7888C10.5831 40.7632 10.3944 40.8438 10.2541 40.9758L10.2323 40.9978C10.0895 41.142 10 41.34 10 41.56ZM18.2341 42.8555V52.6471L40.0305 53.8668L54.3356 45.5513C54.6501 45.3167 54.8607 44.9867 54.9502 44.6249C55.0421 44.2583 55.0083 43.8598 54.8365 43.5005C54.6647 43.1412 54.3767 42.8674 54.038 42.7135C53.704 42.5619 53.3218 42.5204 52.9467 42.6206L41.1875 46.8248C40.7374 47.2599 40.1374 47.5434 39.4696 47.5825L29.6021 47.585C29.2972 47.585 29.048 47.3356 29.048 47.0252C29.048 46.7172 29.2948 46.4655 29.6021 46.4655H39.438C39.8445 46.4337 40.2074 46.2479 40.4736 45.9693C40.4784 45.9644 40.4808 45.9619 40.4833 45.9571C40.4881 45.9522 40.4929 45.9473 40.4954 45.9424C40.7615 45.6515 40.9212 45.2629 40.9212 44.8351C40.9212 44.4025 40.7543 44.0065 40.4808 43.7156C40.2147 43.4296 39.8469 43.2414 39.4331 43.2072H29.3067C29.2003 43.2072 29.0938 43.1779 28.9994 43.1119C27.3371 41.9875 25.4232 41.418 23.5044 41.4009C21.6849 41.3837 19.8576 41.8705 18.2341 42.8555ZM42.6098 23.0051L46.9942 21.8172C47.2894 21.739 47.4636 21.431 47.3862 21.1327C47.3087 20.8345 47.0039 20.6586 46.7086 20.7368L42.3243 21.9247C42.0291 22.0029 41.8549 22.3109 41.9323 22.6091C42.0097 22.9098 42.3146 23.0858 42.6098 23.0051ZM39.6094 18.2729C39.3917 18.4905 39.0432 18.4905 38.8255 18.2729C38.6101 18.0554 38.6101 17.701 38.8255 17.4834L42.0363 14.2398C42.2541 14.0198 42.6025 14.0198 42.8203 14.2398C43.0356 14.4574 43.0356 14.8118 42.8203 15.0293L39.6094 18.2729ZM24.8348 21.9271L20.4504 20.7392C20.1552 20.661 19.8528 20.837 19.7729 21.1352C19.6955 21.4334 19.8697 21.7389 20.1649 21.8196L24.5517 23.0075C24.8469 23.0858 25.1493 22.9098 25.2292 22.6116C25.3042 22.3134 25.13 22.0054 24.8348 21.9271ZM28.3288 17.4834C28.5441 17.7009 28.5441 18.0553 28.3288 18.2729C28.1134 18.4904 27.7626 18.4904 27.5472 18.2729L24.3364 15.0293C24.121 14.8093 24.121 14.4573 24.3364 14.2398C24.5517 14.0198 24.9026 14.0198 25.1179 14.2398L28.3288 17.4834ZM34.1311 15.6452C34.1311 15.9532 33.8843 16.2025 33.5794 16.2025C33.2745 16.2025 33.0253 15.9532 33.0253 15.6452V11.0597C33.0253 10.7518 33.2721 10.5 33.5794 10.5C33.8843 10.5 34.1311 10.7493 34.1311 11.0597V15.6452Z" fill="#F1315A"/>
</svg>
