<svg width="66" height="66" viewBox="0 0 66 66" fill="none" xmlns="http://www.w3.org/2000/svg">
<path d="M11.6523 16.3691L13.5248 15.8141L18.041 14.4265V25.6383L23.2181 24.6392V12.8723L27.8445 11.4847L32.5259 10.0971C32.581 10.0971 32.6361 10.0971 32.6361 10.0416C32.6911 10.0416 32.6911 10.0416 32.7462 10.0416C33.0216 9.98612 33.297 9.98612 33.5724 10.0416C33.6274 10.0416 33.6274 10.0416 33.6825 10.0416C33.7376 10.0416 33.7927 10.0416 33.7927 10.0971L42.4946 12.7058C41.3931 13.8714 40.5119 15.2035 39.851 16.7021L35.3898 15.37V49.6161L51.7473 44.6762V34.6855H51.8024C53.3996 34.6855 54.9417 34.3525 56.3186 33.8529V46.3414C56.3186 47.3404 55.6577 48.2285 54.6663 48.5615L33.8477 54.889C33.6274 54.9445 33.4071 55 33.1868 55C32.9665 55 32.7462 54.9445 32.5259 54.889L11.6523 48.5615C10.6609 48.284 10 47.3959 10 46.3414V18.5893C10 17.5347 10.6609 16.6466 11.6523 16.3691ZM51.8024 12.4283C56.8693 12.4283 61 16.5911 61 21.6975C61 26.8039 56.8693 30.9667 51.8024 30.9667C46.7354 30.9667 42.6048 26.8039 42.6048 21.6975C42.6048 16.5356 46.7354 12.4283 51.8024 12.4283ZM47.176 21.975L48.8834 23.6957L50.6458 25.4718L52.4082 23.6957L56.4287 19.6438L54.6663 17.8677L50.6458 21.9195L48.9384 20.1989L47.176 21.975Z" fill="#3245D4"/>
</svg>
