<svg width="322" height="211" viewBox="0 0 322 211" fill="none" xmlns="http://www.w3.org/2000/svg">
<rect width="322" height="210" transform="translate(0 0.5)" fill="white"/>
<path d="M213.703 175.098L220.803 188.343H235.803" stroke="#3B82F6"/>
<path d="M106.297 139.68L92.7969 146.202H77.7969" stroke="#EF4444"/>
<path d="M104.902 74.4555L91.1016 68.5352H76.1016" stroke="#FFB95A"/>
<path d="M180 26.7901L180.6 11.7383H195.6" stroke="#84CC16"/>
<path d="M251.297 80.0744L265.497 75.2578H280.497" stroke="#22C55E"/>
<path d="M246.764 191.674C246.764 192.182 246.637 192.615 246.383 192.975C246.133 193.33 245.781 193.602 245.328 193.789C244.875 193.977 244.342 194.07 243.729 194.07C243.404 194.07 243.098 194.055 242.809 194.023C242.52 193.992 242.254 193.947 242.012 193.889C241.77 193.83 241.557 193.758 241.373 193.672V192.717C241.666 192.838 242.023 192.951 242.445 193.057C242.867 193.158 243.309 193.209 243.77 193.209C244.199 193.209 244.562 193.152 244.859 193.039C245.156 192.922 245.381 192.756 245.533 192.541C245.689 192.322 245.768 192.061 245.768 191.756C245.768 191.463 245.703 191.219 245.574 191.023C245.445 190.824 245.23 190.645 244.93 190.484C244.633 190.32 244.227 190.146 243.711 189.963C243.348 189.834 243.027 189.693 242.75 189.541C242.473 189.385 242.24 189.209 242.053 189.014C241.865 188.818 241.723 188.592 241.625 188.334C241.531 188.076 241.484 187.781 241.484 187.449C241.484 186.992 241.6 186.602 241.83 186.277C242.064 185.949 242.387 185.699 242.797 185.527C243.211 185.352 243.686 185.264 244.221 185.264C244.678 185.264 245.1 185.307 245.486 185.393C245.877 185.479 246.234 185.594 246.559 185.738L246.248 186.594C245.939 186.465 245.611 186.357 245.264 186.271C244.92 186.186 244.564 186.143 244.197 186.143C243.83 186.143 243.52 186.197 243.266 186.307C243.016 186.412 242.824 186.562 242.691 186.758C242.559 186.953 242.492 187.186 242.492 187.455C242.492 187.756 242.555 188.006 242.68 188.205C242.809 188.404 243.012 188.582 243.289 188.738C243.57 188.891 243.941 189.051 244.402 189.219C244.906 189.402 245.334 189.598 245.686 189.805C246.037 190.008 246.305 190.258 246.488 190.555C246.672 190.848 246.764 191.221 246.764 191.674ZM250.842 187.414C251.389 187.414 251.857 187.535 252.248 187.777C252.639 188.02 252.938 188.359 253.145 188.797C253.352 189.23 253.455 189.738 253.455 190.32V190.924H249.02C249.031 191.678 249.219 192.252 249.582 192.646C249.945 193.041 250.457 193.238 251.117 193.238C251.523 193.238 251.883 193.201 252.195 193.127C252.508 193.053 252.832 192.943 253.168 192.799V193.654C252.844 193.799 252.521 193.904 252.201 193.971C251.885 194.037 251.51 194.07 251.076 194.07C250.459 194.07 249.92 193.945 249.459 193.695C249.002 193.441 248.646 193.07 248.393 192.582C248.139 192.094 248.012 191.496 248.012 190.789C248.012 190.098 248.127 189.5 248.357 188.996C248.592 188.488 248.92 188.098 249.342 187.824C249.768 187.551 250.268 187.414 250.842 187.414ZM250.83 188.211C250.311 188.211 249.896 188.381 249.588 188.721C249.279 189.061 249.096 189.535 249.037 190.145H252.436C252.432 189.762 252.371 189.426 252.254 189.137C252.141 188.844 251.967 188.617 251.732 188.457C251.498 188.293 251.197 188.211 250.83 188.211ZM257.51 187.426C258.275 187.426 258.844 187.598 259.215 187.941C259.586 188.285 259.771 188.834 259.771 189.588V193.953H259.062L258.875 193.004H258.828C258.648 193.238 258.461 193.436 258.266 193.596C258.07 193.752 257.844 193.871 257.586 193.953C257.332 194.031 257.02 194.07 256.648 194.07C256.258 194.07 255.91 194.002 255.605 193.865C255.305 193.729 255.066 193.521 254.891 193.244C254.719 192.967 254.633 192.615 254.633 192.189C254.633 191.549 254.887 191.057 255.395 190.713C255.902 190.369 256.676 190.182 257.715 190.15L258.822 190.104V189.711C258.822 189.156 258.703 188.768 258.465 188.545C258.227 188.322 257.891 188.211 257.457 188.211C257.121 188.211 256.801 188.26 256.496 188.357C256.191 188.455 255.902 188.57 255.629 188.703L255.33 187.965C255.619 187.816 255.951 187.689 256.326 187.584C256.701 187.479 257.096 187.426 257.51 187.426ZM258.811 190.789L257.832 190.83C257.031 190.861 256.467 190.992 256.139 191.223C255.811 191.453 255.646 191.779 255.646 192.201C255.646 192.568 255.758 192.84 255.98 193.016C256.203 193.191 256.498 193.279 256.865 193.279C257.436 193.279 257.902 193.121 258.266 192.805C258.629 192.488 258.811 192.014 258.811 191.381V190.789ZM264.693 187.414C264.822 187.414 264.957 187.422 265.098 187.438C265.238 187.449 265.363 187.467 265.473 187.49L265.35 188.393C265.244 188.365 265.127 188.344 264.998 188.328C264.869 188.312 264.748 188.305 264.635 188.305C264.377 188.305 264.133 188.357 263.902 188.463C263.676 188.564 263.477 188.713 263.305 188.908C263.133 189.1 262.998 189.332 262.9 189.605C262.803 189.875 262.754 190.176 262.754 190.508V193.953H261.775V187.531H262.584L262.689 188.715H262.73C262.863 188.477 263.023 188.26 263.211 188.064C263.398 187.865 263.615 187.707 263.861 187.59C264.111 187.473 264.389 187.414 264.693 187.414ZM269.258 194.07C268.68 194.07 268.17 193.951 267.729 193.713C267.287 193.475 266.943 193.111 266.697 192.623C266.451 192.135 266.328 191.52 266.328 190.777C266.328 190 266.457 189.365 266.715 188.873C266.977 188.377 267.336 188.01 267.793 187.771C268.25 187.533 268.77 187.414 269.352 187.414C269.672 187.414 269.98 187.447 270.277 187.514C270.578 187.576 270.824 187.656 271.016 187.754L270.723 188.568C270.527 188.49 270.301 188.42 270.043 188.357C269.789 188.295 269.551 188.264 269.328 188.264C268.883 188.264 268.512 188.359 268.215 188.551C267.922 188.742 267.701 189.023 267.553 189.395C267.408 189.766 267.336 190.223 267.336 190.766C267.336 191.285 267.406 191.729 267.547 192.096C267.691 192.463 267.904 192.744 268.186 192.939C268.471 193.131 268.826 193.227 269.252 193.227C269.592 193.227 269.898 193.191 270.172 193.121C270.445 193.047 270.693 192.961 270.916 192.863V193.73C270.701 193.84 270.461 193.924 270.195 193.982C269.934 194.041 269.621 194.07 269.258 194.07ZM273.412 184.836V187.561C273.412 187.717 273.408 187.875 273.4 188.035C273.393 188.191 273.379 188.336 273.359 188.469H273.424C273.557 188.242 273.725 188.053 273.928 187.9C274.135 187.744 274.369 187.627 274.631 187.549C274.893 187.467 275.17 187.426 275.463 187.426C275.979 187.426 276.408 187.508 276.752 187.672C277.1 187.836 277.359 188.09 277.531 188.434C277.707 188.777 277.795 189.223 277.795 189.77V193.953H276.834V189.834C276.834 189.299 276.711 188.898 276.465 188.633C276.223 188.367 275.85 188.234 275.346 188.234C274.869 188.234 274.488 188.326 274.203 188.51C273.922 188.689 273.719 188.955 273.594 189.307C273.473 189.658 273.412 190.088 273.412 190.596V193.953H272.439V184.836H273.412Z" fill="#484848"/>
<path d="M22.9297 143.195V148.738C22.9297 149.344 22.8066 149.883 22.5605 150.355C22.3183 150.828 21.9512 151.201 21.459 151.475C20.9668 151.744 20.3496 151.879 19.6074 151.879C18.5488 151.879 17.7422 151.592 17.1875 151.018C16.6367 150.443 16.3613 149.676 16.3613 148.715V143.195H17.3633V148.744C17.3633 149.471 17.5547 150.031 17.9375 150.426C18.3242 150.82 18.9004 151.018 19.666 151.018C20.1894 151.018 20.6172 150.924 20.9492 150.736C21.2851 150.545 21.5332 150.279 21.6933 149.939C21.8574 149.596 21.9394 149.199 21.9394 148.75V143.195H22.9297ZM28.0976 145.223C28.8594 145.223 29.4355 145.41 29.8262 145.785C30.2168 146.156 30.4121 146.754 30.4121 147.578V151.762H29.4512V147.643C29.4512 147.107 29.3281 146.707 29.082 146.441C28.8398 146.176 28.4668 146.043 27.9629 146.043C27.2519 146.043 26.7519 146.244 26.4629 146.646C26.1738 147.049 26.0293 147.633 26.0293 148.398V151.762H25.0566V145.34H25.8418L25.9883 146.266H26.041C26.1777 146.039 26.3515 145.85 26.5625 145.697C26.7734 145.541 27.0098 145.424 27.2715 145.346C27.5332 145.264 27.8086 145.223 28.0976 145.223ZM33.3887 145.34V151.762H32.416V145.34H33.3887ZM32.914 142.938C33.0742 142.938 33.2109 142.99 33.3242 143.096C33.4414 143.197 33.5 143.357 33.5 143.576C33.5 143.791 33.4414 143.951 33.3242 144.057C33.2109 144.162 33.0742 144.215 32.914 144.215C32.7461 144.215 32.6055 144.162 32.4922 144.057C32.3828 143.951 32.3281 143.791 32.3281 143.576C32.3281 143.357 32.3828 143.197 32.4922 143.096C32.6055 142.99 32.7461 142.938 32.914 142.938ZM40.9883 148.539C40.9883 149.066 40.9199 149.537 40.7832 149.951C40.6465 150.365 40.4492 150.715 40.1914 151C39.9336 151.285 39.6211 151.504 39.2539 151.656C38.8906 151.805 38.4785 151.879 38.0176 151.879C37.5879 151.879 37.1933 151.805 36.834 151.656C36.4785 151.504 36.1699 151.285 35.9082 151C35.6504 150.715 35.4492 150.365 35.3047 149.951C35.164 149.537 35.0937 149.066 35.0937 148.539C35.0937 147.836 35.2129 147.238 35.4512 146.746C35.6894 146.25 36.0293 145.873 36.4707 145.615C36.916 145.354 37.4453 145.223 38.0586 145.223C38.6445 145.223 39.1562 145.354 39.5937 145.615C40.0351 145.877 40.3769 146.256 40.6191 146.752C40.8652 147.244 40.9883 147.84 40.9883 148.539ZM36.1015 148.539C36.1015 149.055 36.1699 149.502 36.3066 149.881C36.4433 150.26 36.6543 150.553 36.9394 150.76C37.2246 150.967 37.5918 151.07 38.041 151.07C38.4863 151.07 38.8515 150.967 39.1367 150.76C39.4258 150.553 39.6387 150.26 39.7754 149.881C39.9121 149.502 39.9805 149.055 39.9805 148.539C39.9805 148.027 39.9121 147.586 39.7754 147.215C39.6387 146.84 39.4277 146.551 39.1426 146.348C38.8574 146.145 38.4883 146.043 38.0351 146.043C37.3672 146.043 36.8769 146.264 36.5644 146.705C36.2558 147.146 36.1015 147.758 36.1015 148.539ZM45.7109 145.223C46.4726 145.223 47.0488 145.41 47.4394 145.785C47.8301 146.156 48.0254 146.754 48.0254 147.578V151.762H47.0644V147.643C47.0644 147.107 46.9414 146.707 46.6953 146.441C46.4531 146.176 46.0801 146.043 45.5762 146.043C44.8652 146.043 44.3652 146.244 44.0762 146.646C43.7871 147.049 43.6426 147.633 43.6426 148.398V151.762H42.6699V145.34H43.4551L43.6015 146.266H43.6543C43.791 146.039 43.9648 145.85 44.1758 145.697C44.3867 145.541 44.623 145.424 44.8848 145.346C45.1465 145.264 45.4219 145.223 45.7109 145.223ZM58.666 151.762L57.6113 149.043H54.1777L53.1289 151.762H52.1211L55.4726 143.16H56.3691L59.6973 151.762H58.666ZM57.3125 148.158L56.3105 145.457C56.2871 145.387 56.248 145.271 56.1933 145.111C56.1426 144.951 56.0898 144.785 56.0351 144.613C55.9805 144.441 55.9355 144.303 55.9004 144.197C55.8613 144.357 55.8183 144.518 55.7715 144.678C55.7285 144.834 55.6855 144.98 55.6426 145.117C55.5996 145.25 55.5625 145.363 55.5312 145.457L54.5117 148.158H57.3125ZM63.0254 151.879C62.2129 151.879 61.5683 151.602 61.0918 151.047C60.6191 150.492 60.3828 149.668 60.3828 148.574C60.3828 147.469 60.625 146.635 61.1094 146.072C61.5937 145.506 62.2383 145.223 63.043 145.223C63.3828 145.223 63.6797 145.268 63.9336 145.357C64.1875 145.447 64.4062 145.568 64.5898 145.721C64.7734 145.869 64.9277 146.039 65.0527 146.23H65.123C65.1074 146.109 65.0918 145.943 65.0762 145.732C65.0605 145.521 65.0527 145.35 65.0527 145.217V142.645H66.0254V151.762H65.2402L65.0937 150.848H65.0527C64.9316 151.039 64.7773 151.213 64.5898 151.369C64.4062 151.525 64.1855 151.65 63.9277 151.744C63.6738 151.834 63.373 151.879 63.0254 151.879ZM63.1777 151.07C63.8652 151.07 64.3515 150.875 64.6367 150.484C64.9219 150.094 65.0644 149.514 65.0644 148.744V148.568C65.0644 147.752 64.9277 147.125 64.6543 146.688C64.3848 146.25 63.8926 146.031 63.1777 146.031C62.5801 146.031 62.1328 146.262 61.8359 146.723C61.539 147.18 61.3906 147.805 61.3906 148.598C61.3906 149.387 61.5371 149.996 61.8301 150.426C62.1269 150.855 62.5762 151.07 63.1777 151.07ZM72.2422 150.004C72.2422 150.414 72.1387 150.76 71.9316 151.041C71.7285 151.318 71.4355 151.527 71.0527 151.668C70.6738 151.809 70.2207 151.879 69.6933 151.879C69.2441 151.879 68.8555 151.844 68.5273 151.773C68.1992 151.703 67.9121 151.604 67.666 151.475V150.578C67.9277 150.707 68.2402 150.824 68.6035 150.93C68.9668 151.035 69.3379 151.088 69.7168 151.088C70.2715 151.088 70.6738 150.998 70.9238 150.818C71.1738 150.639 71.2988 150.395 71.2988 150.086C71.2988 149.91 71.248 149.756 71.1465 149.623C71.0488 149.486 70.8828 149.355 70.6484 149.23C70.414 149.102 70.0898 148.961 69.6758 148.809C69.2656 148.652 68.9101 148.498 68.6094 148.346C68.3125 148.189 68.082 148 67.918 147.777C67.7578 147.555 67.6777 147.266 67.6777 146.91C67.6777 146.367 67.8965 145.951 68.334 145.662C68.7754 145.369 69.3535 145.223 70.0683 145.223C70.4551 145.223 70.8164 145.262 71.1523 145.34C71.4922 145.414 71.8086 145.516 72.1015 145.645L71.7734 146.424C71.5078 146.311 71.2246 146.215 70.9238 146.137C70.623 146.059 70.3164 146.02 70.0039 146.02C69.5547 146.02 69.209 146.094 68.9668 146.242C68.7285 146.391 68.6094 146.594 68.6094 146.852C68.6094 147.051 68.664 147.215 68.7734 147.344C68.8867 147.473 69.0664 147.594 69.3125 147.707C69.5586 147.82 69.8828 147.953 70.2851 148.105C70.6875 148.254 71.0351 148.408 71.3281 148.568C71.6211 148.725 71.8457 148.916 72.0019 149.143C72.1621 149.365 72.2422 149.652 72.2422 150.004Z" fill="#484848"/>
<path d="M22.9629 65.5352L19.8867 74.1016H18.8848L15.8086 65.5352H16.8515L18.8555 71.1777C18.9375 71.4043 19.0098 71.6211 19.0723 71.8281C19.1387 72.0352 19.1973 72.2344 19.248 72.4258C19.2988 72.6172 19.3437 72.8027 19.3828 72.9824C19.4219 72.8027 19.4668 72.6172 19.5176 72.4258C19.5683 72.2305 19.6269 72.0293 19.6933 71.8223C19.7598 71.6113 19.834 71.3906 19.916 71.1602L21.9082 65.5352H22.9629ZM24.9668 67.6797V74.1016H23.9941V67.6797H24.9668ZM24.4922 65.2773C24.6523 65.2773 24.789 65.3301 24.9023 65.4355C25.0195 65.5371 25.0781 65.6973 25.0781 65.916C25.0781 66.1309 25.0195 66.291 24.9023 66.3965C24.789 66.502 24.6523 66.5547 24.4922 66.5547C24.3242 66.5547 24.1836 66.502 24.0703 66.3965C23.9609 66.291 23.9062 66.1309 23.9062 65.916C23.9062 65.6973 23.9609 65.5371 24.0703 65.4355C24.1836 65.3301 24.3242 65.2773 24.4922 65.2773ZM29.3144 74.2188C28.5019 74.2188 27.8574 73.9414 27.3808 73.3867C26.9082 72.832 26.6719 72.0078 26.6719 70.9141C26.6719 69.8086 26.914 68.9746 27.3984 68.4121C27.8828 67.8457 28.5273 67.5625 29.332 67.5625C29.6719 67.5625 29.9687 67.6074 30.2226 67.6973C30.4765 67.7871 30.6953 67.9082 30.8789 68.0605C31.0625 68.209 31.2168 68.3789 31.3418 68.5703H31.4121C31.3965 68.4492 31.3808 68.2832 31.3652 68.0723C31.3496 67.8613 31.3418 67.6895 31.3418 67.5566V64.9844H32.3144V74.1016H31.5293L31.3828 73.1875H31.3418C31.2207 73.3789 31.0664 73.5527 30.8789 73.709C30.6953 73.8652 30.4746 73.9902 30.2168 74.084C29.9629 74.1738 29.6621 74.2188 29.3144 74.2188ZM29.4668 73.4102C30.1543 73.4102 30.6406 73.2148 30.9258 72.8242C31.2109 72.4336 31.3535 71.8535 31.3535 71.084V70.9082C31.3535 70.0918 31.2168 69.4648 30.9433 69.0273C30.6738 68.5898 30.1816 68.3711 29.4668 68.3711C28.8691 68.3711 28.4219 68.6016 28.125 69.0625C27.8281 69.5195 27.6797 70.1445 27.6797 70.9375C27.6797 71.7266 27.8262 72.3359 28.1191 72.7656C28.416 73.1953 28.8652 73.4102 29.4668 73.4102ZM36.8496 67.5625C37.3965 67.5625 37.8652 67.6836 38.2558 67.9258C38.6465 68.168 38.9453 68.5078 39.1523 68.9453C39.3594 69.3789 39.4629 69.8867 39.4629 70.4688V71.0723H35.0273C35.039 71.8262 35.2265 72.4004 35.5898 72.7949C35.9531 73.1895 36.4648 73.3867 37.125 73.3867C37.5312 73.3867 37.8906 73.3496 38.2031 73.2754C38.5156 73.2012 38.8398 73.0918 39.1758 72.9473V73.8027C38.8515 73.9473 38.5293 74.0527 38.209 74.1191C37.8926 74.1855 37.5176 74.2188 37.084 74.2188C36.4668 74.2188 35.9277 74.0938 35.4668 73.8438C35.0098 73.5898 34.6543 73.2188 34.4004 72.7305C34.1465 72.2422 34.0195 71.6445 34.0195 70.9375C34.0195 70.2461 34.1348 69.6484 34.3652 69.1445C34.5996 68.6367 34.9277 68.2461 35.3496 67.9727C35.7754 67.6992 36.2754 67.5625 36.8496 67.5625ZM36.8379 68.3594C36.3183 68.3594 35.9043 68.5293 35.5957 68.8691C35.2871 69.209 35.1035 69.6836 35.0449 70.293H38.4433C38.4394 69.9102 38.3789 69.5742 38.2617 69.2852C38.1484 68.9922 37.9746 68.7656 37.7402 68.6055C37.5058 68.4414 37.2051 68.3594 36.8379 68.3594ZM46.6523 70.8789C46.6523 71.4062 46.584 71.877 46.4473 72.291C46.3105 72.7051 46.1133 73.0547 45.8555 73.3398C45.5976 73.625 45.2851 73.8438 44.918 73.9961C44.5547 74.1445 44.1426 74.2188 43.6816 74.2188C43.2519 74.2188 42.8574 74.1445 42.498 73.9961C42.1426 73.8438 41.834 73.625 41.5723 73.3398C41.3144 73.0547 41.1133 72.7051 40.9687 72.291C40.8281 71.877 40.7578 71.4062 40.7578 70.8789C40.7578 70.1758 40.8769 69.5781 41.1152 69.0859C41.3535 68.5898 41.6933 68.2129 42.1348 67.9551C42.5801 67.6934 43.1094 67.5625 43.7226 67.5625C44.3086 67.5625 44.8203 67.6934 45.2578 67.9551C45.6992 68.2168 46.041 68.5957 46.2832 69.0918C46.5293 69.584 46.6523 70.1797 46.6523 70.8789ZM41.7656 70.8789C41.7656 71.3945 41.834 71.8418 41.9707 72.2207C42.1074 72.5996 42.3183 72.8926 42.6035 73.0996C42.8887 73.3066 43.2558 73.4102 43.7051 73.4102C44.1504 73.4102 44.5156 73.3066 44.8008 73.0996C45.0898 72.8926 45.3027 72.5996 45.4394 72.2207C45.5762 71.8418 45.6445 71.3945 45.6445 70.8789C45.6445 70.3672 45.5762 69.9258 45.4394 69.5547C45.3027 69.1797 45.0918 68.8906 44.8066 68.6875C44.5215 68.4844 44.1523 68.3828 43.6992 68.3828C43.0312 68.3828 42.541 68.6035 42.2285 69.0449C41.9199 69.4863 41.7656 70.0977 41.7656 70.8789ZM56.9707 74.1016L55.916 71.3828H52.4824L51.4336 74.1016H50.4258L53.7773 65.5H54.6738L58.0019 74.1016H56.9707ZM55.6172 70.498L54.6152 67.7969C54.5918 67.7266 54.5527 67.6113 54.498 67.4512C54.4473 67.291 54.3945 67.125 54.3398 66.9531C54.2851 66.7812 54.2402 66.6426 54.2051 66.5371C54.166 66.6973 54.123 66.8574 54.0762 67.0176C54.0332 67.1738 53.9902 67.3203 53.9473 67.457C53.9043 67.5898 53.8672 67.7031 53.8359 67.7969L52.8164 70.498H55.6172ZM61.3301 74.2188C60.5176 74.2188 59.873 73.9414 59.3965 73.3867C58.9238 72.832 58.6875 72.0078 58.6875 70.9141C58.6875 69.8086 58.9297 68.9746 59.414 68.4121C59.8984 67.8457 60.543 67.5625 61.3476 67.5625C61.6875 67.5625 61.9844 67.6074 62.2383 67.6973C62.4922 67.7871 62.7109 67.9082 62.8945 68.0605C63.0781 68.209 63.2324 68.3789 63.3574 68.5703H63.4277C63.4121 68.4492 63.3965 68.2832 63.3808 68.0723C63.3652 67.8613 63.3574 67.6895 63.3574 67.5566V64.9844H64.3301V74.1016H63.5449L63.3984 73.1875H63.3574C63.2363 73.3789 63.082 73.5527 62.8945 73.709C62.7109 73.8652 62.4902 73.9902 62.2324 74.084C61.9785 74.1738 61.6777 74.2188 61.3301 74.2188ZM61.4824 73.4102C62.1699 73.4102 62.6562 73.2148 62.9414 72.8242C63.2265 72.4336 63.3691 71.8535 63.3691 71.084V70.9082C63.3691 70.0918 63.2324 69.4648 62.959 69.0273C62.6894 68.5898 62.1973 68.3711 61.4824 68.3711C60.8848 68.3711 60.4375 68.6016 60.1406 69.0625C59.8437 69.5195 59.6953 70.1445 59.6953 70.9375C59.6953 71.7266 59.8418 72.3359 60.1348 72.7656C60.4316 73.1953 60.8808 73.4102 61.4824 73.4102ZM70.5469 72.3438C70.5469 72.7539 70.4433 73.0996 70.2363 73.3809C70.0332 73.6582 69.7402 73.8672 69.3574 74.0078C68.9785 74.1484 68.5254 74.2188 67.998 74.2188C67.5488 74.2188 67.1601 74.1836 66.832 74.1133C66.5039 74.043 66.2168 73.9434 65.9707 73.8145V72.918C66.2324 73.0469 66.5449 73.1641 66.9082 73.2695C67.2715 73.375 67.6426 73.4277 68.0215 73.4277C68.5762 73.4277 68.9785 73.3379 69.2285 73.1582C69.4785 72.9785 69.6035 72.7344 69.6035 72.4258C69.6035 72.25 69.5527 72.0957 69.4512 71.9629C69.3535 71.8262 69.1875 71.6953 68.9531 71.5703C68.7187 71.4414 68.3945 71.3008 67.9805 71.1484C67.5703 70.9922 67.2148 70.8379 66.914 70.6855C66.6172 70.5293 66.3867 70.3398 66.2226 70.1172C66.0625 69.8945 65.9824 69.6055 65.9824 69.25C65.9824 68.707 66.2012 68.291 66.6387 68.002C67.0801 67.709 67.6582 67.5625 68.373 67.5625C68.7598 67.5625 69.1211 67.6016 69.457 67.6797C69.7969 67.7539 70.1133 67.8555 70.4062 67.9844L70.0781 68.7637C69.8125 68.6504 69.5293 68.5547 69.2285 68.4766C68.9277 68.3984 68.6211 68.3594 68.3086 68.3594C67.8594 68.3594 67.5137 68.4336 67.2715 68.582C67.0332 68.7305 66.914 68.9336 66.914 69.1914C66.914 69.3906 66.9687 69.5547 67.0781 69.6836C67.1914 69.8125 67.3711 69.9336 67.6172 70.0469C67.8633 70.1602 68.1875 70.293 68.5898 70.4453C68.9922 70.5938 69.3398 70.748 69.6328 70.9082C69.9258 71.0645 70.1504 71.2559 70.3066 71.4824C70.4668 71.7051 70.5469 71.9922 70.5469 72.3438Z" fill="#484848"/>
<path d="M208.561 12.9629C208.561 13.9277 208.385 14.7344 208.033 15.3828C207.682 16.0273 207.172 16.5137 206.504 16.8418C205.84 17.166 205.033 17.3281 204.084 17.3281H201.758V8.76172H204.342C205.213 8.76172 205.963 8.92188 206.592 9.24219C207.221 9.55859 207.705 10.0293 208.045 10.6543C208.389 11.2754 208.561 12.0449 208.561 12.9629ZM207.512 12.998C207.512 12.2285 207.383 11.5938 207.125 11.0938C206.871 10.5938 206.496 10.2227 206 9.98047C205.508 9.73438 204.904 9.61133 204.189 9.61133H202.754V16.4727H203.967C205.146 16.4727 206.031 16.1816 206.621 15.5996C207.215 15.0176 207.512 14.1504 207.512 12.998ZM212.715 8.63867C213.211 8.63867 213.65 8.7168 214.033 8.87305C214.416 9.0293 214.715 9.25977 214.93 9.56445C215.148 9.86523 215.258 10.2363 215.258 10.6777C215.258 11.0254 215.182 11.3301 215.029 11.5918C214.881 11.8496 214.68 12.0762 214.426 12.2715C214.172 12.4629 213.891 12.6348 213.582 12.7871C213.949 12.9551 214.279 13.1445 214.572 13.3555C214.869 13.5664 215.104 13.8145 215.275 14.0996C215.447 14.3848 215.533 14.7227 215.533 15.1133C215.533 15.5938 215.416 16.0098 215.182 16.3613C214.951 16.709 214.627 16.9766 214.209 17.1641C213.791 17.3516 213.301 17.4453 212.738 17.4453C212.133 17.4453 211.617 17.3555 211.191 17.1758C210.77 16.9922 210.447 16.7305 210.225 16.3906C210.006 16.0469 209.896 15.6348 209.896 15.1543C209.896 14.7598 209.98 14.418 210.148 14.1289C210.316 13.8359 210.539 13.584 210.816 13.373C211.094 13.1621 211.396 12.9844 211.725 12.8398C211.439 12.6836 211.178 12.5059 210.939 12.3066C210.705 12.1074 210.518 11.875 210.377 11.6094C210.24 11.3398 210.172 11.0273 210.172 10.6719C210.172 10.2383 210.281 9.87109 210.5 9.57031C210.723 9.26562 211.025 9.03516 211.408 8.87891C211.795 8.71875 212.23 8.63867 212.715 8.63867ZM210.852 15.1602C210.852 15.5977 211.006 15.959 211.314 16.2441C211.623 16.5254 212.09 16.666 212.715 16.666C213.309 16.666 213.768 16.5254 214.092 16.2441C214.416 15.959 214.578 15.5859 214.578 15.125C214.578 14.8398 214.504 14.5898 214.355 14.375C214.207 14.1562 213.996 13.9609 213.723 13.7891C213.449 13.6172 213.127 13.4609 212.756 13.3203L212.545 13.2441C212.186 13.3926 211.879 13.5586 211.625 13.7422C211.375 13.9219 211.184 14.127 211.051 14.3574C210.918 14.5879 210.852 14.8555 210.852 15.1602ZM212.703 9.43555C212.242 9.43555 211.865 9.54688 211.572 9.76953C211.279 9.98828 211.133 10.3047 211.133 10.7188C211.133 11.0156 211.203 11.2676 211.344 11.4746C211.488 11.6777 211.684 11.8535 211.93 12.002C212.176 12.1465 212.451 12.2812 212.756 12.4062C213.053 12.2812 213.316 12.1445 213.547 11.9961C213.777 11.8438 213.959 11.6641 214.092 11.457C214.225 11.25 214.291 11.002 214.291 10.7129C214.291 10.2988 214.145 9.98242 213.852 9.76367C213.562 9.54492 213.18 9.43555 212.703 9.43555ZM222.793 15.3418H221.51V17.3281H220.561V15.3418H216.418V14.5215L220.496 8.71484H221.51V14.4629H222.793V15.3418ZM220.561 14.4629V11.6621C220.561 11.4473 220.562 11.2539 220.566 11.082C220.57 10.9062 220.576 10.7441 220.584 10.5957C220.592 10.4434 220.598 10.2988 220.602 10.1621C220.609 10.0254 220.615 9.89062 220.619 9.75781H220.572C220.498 9.91406 220.412 10.0801 220.314 10.2559C220.221 10.4277 220.125 10.582 220.027 10.7188L217.385 14.4629H220.561Z" fill="#484848"/>
<path d="M293.459 76.4434C293.459 77.4082 293.283 78.2148 292.932 78.8633C292.58 79.5078 292.07 79.9941 291.402 80.3223C290.738 80.6465 289.932 80.8086 288.982 80.8086H286.656V72.2422H289.24C290.111 72.2422 290.861 72.4023 291.49 72.7227C292.119 73.0391 292.604 73.5098 292.943 74.1348C293.287 74.7559 293.459 75.5254 293.459 76.4434ZM292.41 76.4785C292.41 75.709 292.281 75.0742 292.023 74.5742C291.77 74.0742 291.395 73.7031 290.898 73.4609C290.406 73.2148 289.803 73.0918 289.088 73.0918H287.652V79.9531H288.865C290.045 79.9531 290.93 79.6621 291.52 79.0801C292.113 78.498 292.41 77.6309 292.41 76.4785ZM297.613 72.1191C298.109 72.1191 298.549 72.1973 298.932 72.3535C299.314 72.5098 299.613 72.7402 299.828 73.0449C300.047 73.3457 300.156 73.7168 300.156 74.1582C300.156 74.5059 300.08 74.8105 299.928 75.0723C299.779 75.3301 299.578 75.5566 299.324 75.752C299.07 75.9434 298.789 76.1152 298.48 76.2676C298.848 76.4355 299.178 76.625 299.471 76.8359C299.768 77.0469 300.002 77.2949 300.174 77.5801C300.346 77.8652 300.432 78.2031 300.432 78.5938C300.432 79.0742 300.314 79.4902 300.08 79.8418C299.85 80.1895 299.525 80.457 299.107 80.6445C298.689 80.832 298.199 80.9258 297.637 80.9258C297.031 80.9258 296.516 80.8359 296.09 80.6562C295.668 80.4727 295.346 80.2109 295.123 79.8711C294.904 79.5273 294.795 79.1152 294.795 78.6348C294.795 78.2402 294.879 77.8984 295.047 77.6094C295.215 77.3164 295.438 77.0645 295.715 76.8535C295.992 76.6426 296.295 76.4648 296.623 76.3203C296.338 76.1641 296.076 75.9863 295.838 75.7871C295.604 75.5879 295.416 75.3555 295.275 75.0898C295.139 74.8203 295.07 74.5078 295.07 74.1523C295.07 73.7188 295.18 73.3516 295.398 73.0508C295.621 72.7461 295.924 72.5156 296.307 72.3594C296.693 72.1992 297.129 72.1191 297.613 72.1191ZM295.75 78.6406C295.75 79.0781 295.904 79.4395 296.213 79.7246C296.521 80.0059 296.988 80.1465 297.613 80.1465C298.207 80.1465 298.666 80.0059 298.99 79.7246C299.314 79.4395 299.477 79.0664 299.477 78.6055C299.477 78.3203 299.402 78.0703 299.254 77.8555C299.105 77.6367 298.895 77.4414 298.621 77.2695C298.348 77.0977 298.025 76.9414 297.654 76.8008L297.443 76.7246C297.084 76.873 296.777 77.0391 296.523 77.2227C296.273 77.4023 296.082 77.6074 295.949 77.8379C295.816 78.0684 295.75 78.3359 295.75 78.6406ZM297.602 72.916C297.141 72.916 296.764 73.0273 296.471 73.25C296.178 73.4688 296.031 73.7852 296.031 74.1992C296.031 74.4961 296.102 74.748 296.242 74.9551C296.387 75.1582 296.582 75.334 296.828 75.4824C297.074 75.627 297.35 75.7617 297.654 75.8867C297.951 75.7617 298.215 75.625 298.445 75.4766C298.676 75.3242 298.857 75.1445 298.99 74.9375C299.123 74.7305 299.189 74.4824 299.189 74.1934C299.189 73.7793 299.043 73.4629 298.75 73.2441C298.461 73.0254 298.078 72.916 297.602 72.916ZM304.357 75.5703C304.939 75.5703 305.445 75.6699 305.875 75.8691C306.305 76.0645 306.637 76.3496 306.871 76.7246C307.109 77.0996 307.229 77.5547 307.229 78.0898C307.229 78.6758 307.102 79.1816 306.848 79.6074C306.594 80.0293 306.229 80.3555 305.752 80.5859C305.275 80.8125 304.705 80.9258 304.041 80.9258C303.596 80.9258 303.182 80.8867 302.799 80.8086C302.416 80.7305 302.094 80.6133 301.832 80.457V79.5312C302.117 79.7031 302.463 79.8398 302.869 79.9414C303.275 80.043 303.67 80.0938 304.053 80.0938C304.486 80.0938 304.865 80.0254 305.189 79.8887C305.518 79.748 305.771 79.5371 305.951 79.2559C306.135 78.9707 306.227 78.6133 306.227 78.1836C306.227 77.6133 306.051 77.1738 305.699 76.8652C305.352 76.5527 304.801 76.3965 304.047 76.3965C303.805 76.3965 303.539 76.416 303.25 76.4551C302.961 76.4941 302.723 76.5371 302.535 76.584L302.043 76.2617L302.371 72.2422H306.631V73.1328H303.203L302.986 75.7168C303.135 75.6855 303.326 75.6543 303.561 75.623C303.795 75.5879 304.061 75.5703 304.357 75.5703Z" fill="#484848"/>
<path d="M244.681 108.467C246.116 108.53 247.521 108.903 248.8 109.559C250.079 110.216 251.202 111.141 252.092 112.273C252.983 113.404 253.62 114.715 253.96 116.115C254.3 117.516 254.336 118.973 254.064 120.389C251.846 131.953 247.071 142.87 240.091 152.337C233.111 161.804 224.105 169.58 213.734 175.092C203.363 180.605 191.892 183.713 180.166 184.188C168.44 184.663 156.757 182.493 145.977 177.838C144.657 177.268 143.475 176.42 142.512 175.35C141.548 174.281 140.826 173.016 140.393 171.641C139.961 170.267 139.829 168.814 140.006 167.384C140.183 165.953 140.665 164.578 141.42 163.351L161.629 130.493C162.724 128.712 164.348 127.319 166.271 126.51C168.195 125.7 170.323 125.514 172.357 125.979C177.243 127.094 182.367 126.413 186.795 124.06C191.224 121.706 194.664 117.835 196.489 113.152C197.249 111.203 198.598 109.541 200.346 108.399C202.094 107.257 204.154 106.692 206.238 106.783L244.681 108.467Z" fill="#3B82F6"/>
<path d="M136.531 160.02C135.673 161.176 134.576 162.133 133.317 162.826C132.057 163.518 130.663 163.931 129.23 164.034C127.797 164.138 126.359 163.93 125.013 163.426C123.667 162.922 122.445 162.132 121.431 161.111C108.928 148.531 101.032 132.078 99.0253 114.426C98.8626 112.993 99.0092 111.543 99.4554 110.172C99.9015 108.802 100.637 107.544 101.611 106.484C102.585 105.425 103.775 104.588 105.1 104.032C106.426 103.475 107.855 103.212 109.291 103.259L147.749 104.533C149.834 104.602 151.845 105.324 153.501 106.597C155.157 107.87 156.375 109.631 156.984 111.633C157.606 113.679 158.537 115.618 159.743 117.383C160.923 119.109 161.536 121.162 161.495 123.255C161.455 125.347 160.763 127.375 159.517 129.054L136.531 160.02Z" fill="#EF4444"/>
<path d="M109.746 97.3437C108.319 97.1708 106.947 96.6915 105.722 95.9385C104.497 95.1854 103.448 94.1764 102.646 92.98C101.845 91.7836 101.31 90.4279 101.077 89.0053C100.845 87.5827 100.92 86.1265 101.299 84.7359C103.209 77.7256 106.076 71.0143 109.819 64.7931C110.562 63.559 111.561 62.4999 112.748 61.688C113.935 60.8761 115.283 60.3304 116.699 60.0881C118.115 59.8458 119.567 59.9125 120.955 60.2837C122.343 60.6549 123.635 61.3219 124.744 62.2393L155.456 87.6629C156.819 88.7916 157.782 90.3335 158.198 92.0573C158.615 93.7811 158.464 95.5941 157.767 97.2244C157.071 98.8547 155.867 100.215 154.335 101.1C152.803 101.986 151.027 102.349 149.272 102.137L109.746 97.3437Z" fill="#FFB95A"/>
<path d="M128.699 57.8352C127.675 56.8244 126.88 55.604 126.368 54.2571C125.856 52.9102 125.639 51.4684 125.732 50.0298C125.825 48.5913 126.226 47.1898 126.908 45.9207C127.589 44.6517 128.535 43.5448 129.681 42.6756C144.13 31.7179 161.91 26.1117 180.008 26.8078C198.105 27.5039 215.406 34.4594 228.976 46.4947C230.052 47.4494 230.911 48.6257 231.494 49.9434C232.077 51.261 232.369 52.6892 232.353 54.1307C232.336 55.5722 232.01 56.9931 231.396 58.2968C230.783 59.6004 229.897 60.7561 228.799 61.6853L199.378 86.5717C197.783 87.9209 195.808 88.7358 193.729 88.9023C191.649 89.0688 189.57 88.5787 187.782 87.5004C184.759 85.6777 181.327 84.6509 177.803 84.5154C174.28 84.3799 170.779 85.14 167.626 86.7251C165.761 87.6629 163.651 87.9919 161.59 87.6661C159.53 87.3404 157.622 86.3762 156.135 84.9085L128.699 57.8352Z" fill="#84CC16"/>
<path d="M232.408 66.3786C233.583 65.5491 234.922 64.9833 236.334 64.7198C237.747 64.4563 239.199 64.5013 240.593 64.8517C241.986 65.2021 243.288 65.8497 244.41 66.7504C245.532 67.6511 246.447 68.7838 247.093 70.0712C250.351 76.5618 252.698 83.4737 254.067 90.6101C254.339 92.0257 254.303 93.4834 253.963 94.884C253.623 96.2846 252.986 97.5952 252.095 98.7265C251.205 99.8578 250.082 100.783 248.803 101.44C247.524 102.097 246.119 102.469 244.684 102.532L204.908 104.275C203.142 104.352 201.398 103.853 199.939 102.852C198.479 101.852 197.382 100.403 196.812 98.7243C196.242 97.0452 196.229 95.226 196.776 93.5393C197.323 91.8525 198.4 90.3892 199.846 89.3684L232.408 66.3786Z" fill="#22C55E"/>
</svg>
