<svg width="32" height="32" viewBox="0 0 32 32" fill="none" xmlns="http://www.w3.org/2000/svg">
<path d="M15.7881 7.77895C15.3741 7.77895 15.0314 7.4362 15.0314 7.02226C15.0314 6.59944 15.3741 6.26558 15.7881 6.26558C16.202 6.26558 16.5447 6.60832 16.5447 7.02226C16.5447 7.42284 16.8697 7.73887 17.2614 7.73887C17.653 7.73887 17.978 7.41396 17.978 7.02226C17.978 6.06529 17.3593 5.25077 16.5047 4.9525V4.71661C16.5047 4.31603 16.1798 4 15.7881 4C15.3875 4 15.0714 4.32491 15.0714 4.71661V4.9525C14.2168 5.2507 13.5981 6.06529 13.5981 7.02226C13.5981 8.22848 14.5818 9.22105 15.7969 9.22105C16.2109 9.22105 16.5536 9.55932 16.5536 9.97774C16.5536 10.3917 16.2153 10.7344 15.7969 10.7344C15.383 10.7344 15.0403 10.3962 15.0403 9.97774C15.0403 9.57716 14.7153 9.26113 14.3236 9.26113C13.9319 9.26113 13.607 9.58604 13.607 9.97774C13.607 10.9347 14.2257 11.7492 15.0803 12.0475V12.2834C15.0803 12.684 15.4052 13 15.7969 13C16.1975 13 16.5135 12.6751 16.5135 12.2834V12.0475C17.3681 11.7493 17.9868 10.9347 17.9868 9.97774C17.9869 8.77152 17.0032 7.77895 15.7881 7.77895Z" fill="#007BFF"/>
<path d="M27.2191 12.7657C22.7459 12.7657 18.8367 15.2189 16.7736 18.8553V15.6806C20.4804 15.291 23.3725 12.1547 23.3725 8.35948C23.3725 4.29974 20.0659 1 15.9976 1C11.9293 1 8.62261 4.29974 8.62261 8.35955C8.62261 12.1548 11.5148 15.2862 15.2215 15.671V18.8505C13.1584 15.2285 9.24924 12.7657 4.77605 12.7657C4.34224 12.7657 4 13.1168 4 13.5401C4 19.8799 8.96486 25.0893 15.2215 25.4886V28.2256C15.2215 28.6585 15.5734 29 15.9976 29C16.4314 29 16.7736 28.6489 16.7736 28.2256V25.4934C23.0303 25.0941 28 19.8896 28 13.5498C28 13.1168 27.6529 12.7657 27.2191 12.7657ZM5.58588 14.3531C10.7002 14.7427 14.7926 18.8313 15.1926 23.9397C10.0735 23.5453 5.9763 19.4566 5.58588 14.3531ZM15.9976 14.1606C12.7873 14.1606 10.1843 11.5583 10.1843 8.35955C10.1843 5.15595 12.7921 2.55846 15.9976 2.55846C19.2079 2.55846 21.8108 5.16078 21.8108 8.35955C21.8108 11.5632 19.2079 14.1606 15.9976 14.1606ZM16.8122 23.9397C17.2026 18.8361 21.2998 14.7523 26.4189 14.3531C26.0189 19.4566 21.9217 23.5453 16.8122 23.9397Z" fill="#007BFF"/>
</svg>
