<svg width="66" height="66" viewBox="0 0 66 66" fill="none" xmlns="http://www.w3.org/2000/svg">
<path fill-rule="evenodd" clip-rule="evenodd" d="M43.0627 53.0985V28.2777C43.0607 27.4827 42.4182 26.8396 41.6219 26.8376H37.076C36.2817 26.8396 35.6372 27.4827 35.6352 28.2777V53.0985H43.0627ZM10.4809 55C10.2155 55 10 54.7843 10 54.5186C10 54.253 10.2155 54.0393 10.4809 54.0393H56.5191C56.7845 54.0393 57 54.253 57 54.5186C57 54.7843 56.7845 55 56.5191 55H10.4809ZM16.0126 31.254C15.7572 31.2779 15.5277 31.0982 15.4918 30.8425C15.4559 30.5888 15.6275 30.3512 15.881 30.3032C15.9468 30.3032 38.1958 27.2713 50.0214 11.0931L47.1957 11.4825C46.9303 11.5185 46.6848 11.3327 46.6469 11.0651C46.611 10.7995 46.7966 10.5518 47.064 10.5158L50.9873 10.0045C51.2487 9.96858 51.4922 10.1503 51.5281 10.414L52.0689 14.3368L52.0709 14.3348C52.0949 14.5904 51.9133 14.8201 51.6578 14.856C51.4044 14.892 51.1669 14.7202 51.119 14.4686L50.7459 11.7382C38.6607 28.176 16.0785 31.2437 16.0126 31.254ZM54.7632 53.0989V21.5093C54.7632 20.7143 54.1206 20.0692 53.3264 20.0672H48.7804C47.9862 20.0692 47.3456 20.7143 47.3456 21.5093V53.0989H54.7632ZM19.6567 53.0989L19.6547 41.8183C19.6547 41.0253 19.0121 40.3822 18.2199 40.3822H13.6739C12.8797 40.3822 12.2371 41.0253 12.2371 41.8183V53.0989H19.6567ZM31.3607 53.0989L31.3587 35.0592C31.3627 34.2622 30.7201 33.6131 29.9239 33.6071H25.378C24.9928 33.6091 24.6256 33.7629 24.3562 34.0346C24.0868 34.3062 23.9352 34.6757 23.9372 35.0592V53.1092L31.3607 53.0989Z" fill="#04CAFF"/>
</svg>
