<svg width="66" height="66" viewBox="0 0 66 66" fill="none" xmlns="http://www.w3.org/2000/svg">
<path d="M53.2642 18.1745L47.037 28.0504C46.0818 27.5868 44.9389 27.5652 43.9449 28.0719C43.1492 28.4644 42.3838 28.8051 41.6484 29.1048L48.9194 17.6181C48.9259 17.6074 48.9302 17.5966 48.9367 17.5858C49.5383 16.5249 50.8795 16.1001 51.9899 16.6198C52.3328 16.7793 52.6239 17.0165 52.8567 17.3206C53.0487 17.5728 53.1865 17.864 53.2642 18.1745Z" fill="#FDA803"/>
<path d="M60.2456 18.2794C60.2283 18.4066 60.2024 18.5446 60.1572 18.7106C58.8052 22.9994 54.9907 33.5976 48.7312 39.7299C42.5709 45.7693 34.9593 49.3016 31.464 50.7136C31.382 50.5325 31.2828 50.36 31.1556 50.194L24.4648 41.4591C24.344 41.293 24.1996 41.1507 24.0508 41.0278C24.9068 39.5098 26.6016 37.2802 29.8253 35.1821C29.8425 35.1713 29.8576 35.1605 29.8684 35.1541C31.2549 34.2549 32.9152 33.3881 34.9141 32.6032C35.0133 32.5644 35.3841 32.4867 35.7356 32.4091C37.3356 32.0663 40.6756 31.3482 44.6063 29.3903C45.4667 28.9548 46.5276 29.1963 47.1227 29.9747C47.4548 30.4059 47.5971 30.9342 47.5302 31.4646C47.4591 32.0878 47.099 32.629 46.5578 32.9611C39.2111 37.4051 38.5256 38.4207 38.2992 38.7571C38.0728 39.0935 38.1612 39.5571 38.5041 39.7835C38.8405 40.0099 39.304 39.9215 39.5305 39.5787C39.7008 39.3242 40.766 38.1879 47.3297 34.2247C48.2634 33.6554 48.8693 32.7174 49.003 31.6415C49.1129 30.725 48.865 29.8086 48.2957 29.0755C48.2634 29.0367 48.2354 29.0044 48.2009 28.9655L55.9118 16.7398C56.563 15.7026 57.9214 15.3425 59.0039 15.9182C59.8815 16.3753 60.362 17.3026 60.2456 18.2794Z" fill="#FDA803"/>
<path d="M29.7566 52.778L26.5265 55.2513C26.272 55.4453 25.9572 55.5337 25.6381 55.4885C25.3232 55.4453 25.0365 55.2836 24.8424 55.0313L18.1538 46.292C17.7505 45.7616 17.8497 45.0112 18.3802 44.6079L21.6103 42.1347C21.8302 41.9687 22.0847 41.8867 22.3391 41.8867C22.7035 41.8867 23.0571 42.0528 23.2943 42.3568L29.9786 51.0939C30.3796 51.62 30.2805 52.3769 29.7566 52.778Z" fill="#FDA803"/>
<path d="M47.4945 10.5001H7.30196C6.43514 10.5001 5.73438 11.2009 5.73438 12.0677V32.244C5.73438 33.1108 6.43514 33.8116 7.30196 33.8116H29.2226C30.6587 32.8951 32.3578 32.0111 34.3847 31.2219C34.6003 31.1399 34.9152 31.0731 35.4326 30.9631C36.293 30.7755 37.673 30.4823 39.3743 29.9303L47.6654 16.8373C48.0082 16.2357 48.4999 15.7656 49.067 15.4401V12.0719C49.0627 11.203 48.3598 10.5 47.495 10.5L47.4945 10.5001ZM7.55588 16.4468C7.55588 16.0393 7.88794 15.7072 8.29545 15.7072H21.5607C21.9682 15.7072 22.3002 16.0393 22.3002 16.4468C22.3002 16.8543 21.9682 17.1864 21.5607 17.1864H8.29545C7.88792 17.1864 7.55588 16.8543 7.55588 16.4468ZM11.8943 22.0662C11.8943 21.6587 12.2264 21.3267 12.6339 21.3267H25.8991C26.3066 21.3267 26.6387 21.6587 26.6387 22.0662C26.6387 22.4738 26.3066 22.8058 25.8991 22.8058H12.6399C12.2303 22.8101 11.8943 22.4802 11.8943 22.0662ZM30.244 28.4292H16.9788C16.5713 28.4292 16.2392 28.0971 16.2392 27.6896C16.2392 27.2821 16.5713 26.95 16.9788 26.95H30.244C30.6516 26.95 30.9836 27.2821 30.9836 27.6896C30.9879 28.0993 30.658 28.4292 30.244 28.4292Z" fill="#FDA803"/>
</svg>
