<svg width="282" height="173" viewBox="0 0 282 173" fill="none" xmlns="http://www.w3.org/2000/svg">
<path d="M58.5665 111.548C59.4729 134.524 108.582 176.808 162.11 154.432C187.005 144.025 183.585 130.947 201.442 111.614C212.085 100.091 228.046 90.6355 231.266 75.0351C234.049 61.5696 230.266 47.731 222.448 39.2324C204.867 20.1193 171.954 8.98929 143.878 44.3342C115.802 79.6792 56.2351 52.2927 58.5665 111.548Z" fill="url(#paint0_linear_1192_15331)"/>
<path d="M49.3551 49.5945C53.6498 57.2504 63.0551 58.3022 78.1229 56.8476C89.4549 55.7513 99.7887 54.9029 111.122 48.7308C119.054 44.4139 125.333 38.5734 129.916 32.9006C134.882 26.755 141.814 19.7415 138.416 12.7736C133.746 3.20178 106.741 -4.85969 80.5181 8.32356C51.7121 22.8094 45.1541 42.112 49.3551 49.5945Z" fill="url(#paint1_linear_1192_15331)"/>
<path d="M14.4167 72.561C25.5496 78.0772 40.3256 70.9841 40.3256 70.9841C40.3256 70.9841 37.0419 54.9505 25.903 49.4417C14.7701 43.9252 0 51.0105 0 51.0105C0 51.0105 3.28377 67.0445 14.4167 72.561Z" fill="url(#paint2_linear_1192_15331)"/>
<path d="M263.864 89.7469C257.816 93.3682 249.138 90.0205 249.138 90.0205C249.138 90.0205 250.272 80.8032 256.325 77.1861C262.373 73.5651 271.048 76.9083 271.048 76.9083C271.048 76.9083 269.913 86.1256 263.864 89.7469Z" fill="url(#paint3_linear_1192_15331)"/>
<path d="M42.022 151.389C43.9105 151.389 45.4415 149.86 45.4415 147.974C45.4415 146.087 43.9105 144.558 42.022 144.558C40.1335 144.558 38.6025 146.087 38.6025 147.974C38.6025 149.86 40.1335 151.389 42.022 151.389Z" fill="#D0D5DD"/>
<path d="M264.718 127.596C267.446 127.596 269.658 125.387 269.658 122.662C269.658 119.938 267.446 117.729 264.718 117.729C261.991 117.729 259.779 119.938 259.779 122.662C259.779 125.387 261.991 127.596 264.718 127.596Z" fill="#D0D5DD"/>
<path d="M24.6095 117.96C26.6854 117.96 28.3684 116.279 28.3684 114.205C28.3684 112.131 26.6854 110.45 24.6095 110.45C22.5335 110.45 20.8506 112.131 20.8506 114.205C20.8506 116.279 22.5335 117.96 24.6095 117.96Z" fill="#D0D5DD"/>
<path d="M45.6549 18.8958C47.9631 18.8958 49.8342 17.0267 49.8342 14.7211C49.8342 12.4155 47.9631 10.5464 45.6549 10.5464C43.3467 10.5464 41.4756 12.4155 41.4756 14.7211C41.4756 17.0267 43.3467 18.8958 45.6549 18.8958Z" fill="#D0D5DD"/>
<path d="M274.494 41.0857C274.494 43.1561 276.174 44.8345 278.247 44.8345C280.32 44.8345 282 43.1561 282 41.0857C282 39.0153 280.32 37.3369 278.247 37.3369C276.174 37.3369 274.494 39.0153 274.494 41.0857Z" fill="#D0D5DD"/>
<path d="M168.234 9.97387C170.991 9.97387 173.226 7.74114 173.226 4.98693C173.226 2.23273 170.991 0 168.234 0C165.476 0 163.241 2.23273 163.241 4.98693C163.241 7.74114 165.476 9.97387 168.234 9.97387Z" fill="#D0D5DD"/>
<path d="M38.2908 96.475C40.4119 96.475 42.1314 95.101 42.1314 93.4061C42.1314 91.7112 40.4119 90.3372 38.2908 90.3372C36.1697 90.3372 34.4502 91.7112 34.4502 93.4061C34.4502 95.101 36.1697 96.475 38.2908 96.475Z" fill="#D0D5DD"/>
<path d="M236.306 18.8362H236.251C235.927 23.4214 232.514 23.4918 232.514 23.4918C232.514 23.4918 236.278 23.5653 236.278 28.8633C236.278 23.5653 240.042 23.4918 240.042 23.4918C240.042 23.4918 236.63 23.4214 236.306 18.8362ZM242.025 138.856H241.972C241.661 143.427 238.384 143.497 238.384 143.497C238.384 143.497 241.998 143.57 241.998 148.853C241.998 143.57 245.612 143.497 245.612 143.497C245.612 143.497 242.336 143.427 242.025 138.856Z" fill="#DFE3E8"/>
<path d="M138.045 173C185.675 173 224.286 134.431 224.286 86.854C224.286 39.2769 185.675 0.708008 138.045 0.708008C90.4152 0.708008 51.8037 39.2769 51.8037 86.854C51.8037 134.431 90.4152 173 138.045 173Z" fill="#007BFF"/>
<mask id="mask0_1192_15331" style="mask-type:alpha" maskUnits="userSpaceOnUse" x="51" y="0" width="174" height="173">
<path d="M138.045 173C185.675 173 224.286 134.431 224.286 86.854C224.286 39.2769 185.675 0.708008 138.045 0.708008C90.4152 0.708008 51.8037 39.2769 51.8037 86.854C51.8037 134.431 90.4152 173 138.045 173Z" fill="#666AF6"/>
</mask>
<g mask="url(#mask0_1192_15331)">
<path d="M184.17 48.1409H92.3021C84.5559 48.1409 78.2764 54.4135 78.2764 62.1511V160.923C78.2764 168.661 84.5559 174.933 92.3021 174.933H184.17C191.917 174.933 198.196 168.661 198.196 160.923V62.1511C198.196 54.4135 191.917 48.1409 184.17 48.1409Z" fill="white"/>
<path d="M168.5 121.278C168.5 125.579 162.015 128.136 149.044 133.25C143.833 135.304 141.227 136.331 138.5 136.331C135.773 136.331 133.167 135.304 127.956 133.25C114.985 128.136 108.5 125.579 108.5 121.278V89.6648L138.5 103.213L168.5 89.6648V121.278Z" fill="#FFC107"/>
<path d="M126.253 98.6362L116.516 93.9244C111.172 91.3386 108.5 90.0457 108.5 87.9983C108.5 85.9509 111.172 84.6579 116.516 82.0721L126.253 77.3603C132.263 74.4523 135.268 72.9983 138.5 72.9983C141.732 72.9983 144.737 74.4523 150.747 77.3603L160.484 82.0721C165.828 84.6579 168.5 85.9509 168.5 87.9983C168.5 90.0457 165.828 91.3386 160.484 93.9244L150.747 98.6362C144.737 101.544 141.732 102.998 138.5 102.998C135.268 102.998 132.263 101.544 126.253 98.6362Z" fill="white"/>
<path d="M138.5 136.332C135.773 136.332 133.167 135.214 127.956 132.978C114.985 127.413 108.5 124.63 108.5 119.949V88.8233M138.5 136.332C141.227 136.332 143.833 135.214 149.044 132.978C162.015 127.413 168.5 124.63 168.5 119.949V88.8233M138.5 136.332L138.5 103.567M168.5 88.8233C168.5 90.8358 165.828 92.1066 160.484 94.6483L150.747 99.2797C144.737 102.138 141.732 103.567 138.5 103.567M168.5 88.8233C168.5 86.8108 165.828 85.54 160.484 82.9983M108.5 88.8233C108.5 90.8358 111.172 92.1066 116.516 94.6483L126.253 99.2797C132.263 102.138 135.268 103.567 138.5 103.567M108.5 88.8233C108.5 86.8108 111.172 85.54 116.516 82.9983M119.607 107.368L126.253 110.53" stroke="#212B36" stroke-width="1.5" stroke-linecap="round" stroke-linejoin="round"/>
<path d="M138.5 69.6648V76.3315M151.834 72.9981L146.834 79.6648M125.167 72.9981L130.167 79.6648" stroke="#212B36" stroke-width="1.5" stroke-linecap="round"/>
</g>
<path d="M183.384 126.53C185.109 126.53 186.665 125.491 187.325 123.897C187.985 122.303 187.62 120.468 186.4 119.249C185.179 118.029 183.345 117.665 181.751 118.325C180.157 118.986 179.118 120.542 179.119 122.267C179.119 123.398 179.568 124.483 180.368 125.283C181.168 126.082 182.253 126.531 183.384 126.53Z" fill="#1890FF"/>
<path d="M115.966 65.5303C117.691 65.5303 119.247 64.491 119.907 62.897C120.567 61.3031 120.202 59.4685 118.982 58.2488C117.761 57.0291 115.927 56.6646 114.333 57.3252C112.739 57.9859 111.701 59.5416 111.701 61.2668C111.701 62.398 112.15 63.4829 112.95 64.2826C113.75 65.0823 114.835 65.5312 115.966 65.5303Z" fill="#FFC107"/>
<path d="M89.9205 147.781C94.2948 147.781 97.8409 144.235 97.8409 139.86C97.8409 135.486 94.2948 131.94 89.9205 131.94C85.5461 131.94 82 135.486 82 139.86C81.9979 141.962 82.8317 143.978 84.3175 145.463C85.8033 146.949 87.8192 147.783 89.9205 147.781Z" fill="#FF4842"/>
<defs>
<linearGradient id="paint0_linear_1192_15331" x1="124.919" y1="243.552" x2="173.054" y2="-141.467" gradientUnits="userSpaceOnUse">
<stop stop-color="white"/>
<stop offset="1" stop-color="#EEEEEE"/>
</linearGradient>
<linearGradient id="paint1_linear_1192_15331" x1="78.2856" y1="99.2113" x2="116.482" y2="-72.6187" gradientUnits="userSpaceOnUse">
<stop stop-color="white"/>
<stop offset="1" stop-color="#EEEEEE"/>
</linearGradient>
<linearGradient id="paint2_linear_1192_15331" x1="57.168" y1="89.768" x2="-34.578" y2="17.1161" gradientUnits="userSpaceOnUse">
<stop stop-color="white"/>
<stop offset="1" stop-color="#EEEEEE"/>
</linearGradient>
<linearGradient id="paint3_linear_1192_15331" x1="240.458" y1="101.403" x2="289.078" y2="56.1791" gradientUnits="userSpaceOnUse">
<stop stop-color="white"/>
<stop offset="1" stop-color="#EEEEEE"/>
</linearGradient>
</defs>
</svg>
