<svg width="16" height="16" viewBox="0 0 16 16" fill="none" xmlns="http://www.w3.org/2000/svg">
<path d="M7.35047 2C4.34087 2.33264 2 4.88381 2 7.98163C2 11.3055 4.69492 14 8.01928 14C11.112 14 13.6599 11.668 14 8.66667" stroke="#212B36" stroke-width="0.75" stroke-linecap="round"/>
<path d="M14.0003 4.01686L13.334 4.01518C10.8429 4.00887 9.59741 4.00572 8.7218 4.6351C8.43082 4.84426 8.17547 5.09896 7.96558 5.38941C7.33398 6.26343 7.33398 7.50896 7.33398 10M14.0003 4.01686C14.0048 3.90844 13.966 3.79937 13.884 3.70222C13.3739 3.09791 12.0481 2 12.0481 2M14.0003 4.01686C13.9963 4.11408 13.9575 4.21077 13.8839 4.29788C13.3737 4.90207 12.0481 6 12.0481 6" stroke="#212B36" stroke-width="0.75" stroke-linecap="round" stroke-linejoin="round"/>
</svg>
