<svg width="21" height="20" viewBox="0 0 21 20" fill="none" xmlns="http://www.w3.org/2000/svg">
<path d="M19.082 16.7404L15.1737 12.832C16.057 11.707 16.582 10.2904 16.582 8.7487C16.582 5.06536 13.5987 2.08203 9.91536 2.08203C6.51536 2.08203 3.71536 4.6237 3.30703 7.91536H4.99036C5.39036 5.55703 7.44036 3.7487 9.91536 3.7487C12.6737 3.7487 14.9154 5.99036 14.9154 8.7487C14.9154 11.507 12.6737 13.7487 9.91536 13.7487C7.8987 13.7487 6.16536 12.5487 5.3737 10.832H3.58203C4.45703 13.4904 6.96536 15.4154 9.91536 15.4154C11.457 15.4154 12.8737 14.8904 13.9987 14.007L17.907 17.9154L19.082 16.7404Z" fill="#484848"/>
<path d="M7.7737 7.65703L8.79036 12.082H10.157L11.207 8.93203L11.9987 10.832H13.6654V9.58203H12.832L11.7904 7.08203H10.507L9.5737 9.89036L8.54036 5.41536H7.16536L6.1237 8.7487H1.58203V9.9987H7.04036L7.7737 7.65703Z" fill="#484848"/>
</svg>
