<svg width="33" height="32" viewBox="0 0 33 32" fill="none" xmlns="http://www.w3.org/2000/svg">
<g clip-path="url(#clip0_71_17592)">
<path d="M7.31188 10.3066C9.2042 7.31508 12.5381 5.33341 16.3338 5.33341C20.1295 5.33341 23.4634 7.31508 25.3558 10.3066L27.6094 8.88103C25.2488 5.1494 21.0818 2.66675 16.3338 2.66675C11.5859 2.66675 7.41874 5.1494 5.05824 8.88103L7.31188 10.3066ZM16.3338 26.6667C12.5381 26.6667 9.2042 24.6851 7.31188 21.6935L5.05824 23.1191C7.41874 26.8507 11.5859 29.3334 16.3338 29.3334C21.0818 29.3334 25.2488 26.8507 27.6094 23.1191L25.3558 21.6935C23.4634 24.6851 20.1295 26.6667 16.3338 26.6667ZM16.3335 10.6667C17.0699 10.6667 17.6668 11.2637 17.6668 12.0001C17.6668 12.7365 17.0699 13.3334 16.3335 13.3334C15.5971 13.3334 15.0002 12.7365 15.0002 12.0001C15.0002 11.2637 15.5971 10.6667 16.3335 10.6667ZM16.3335 16.0001C18.5427 16.0001 20.3335 14.2093 20.3335 12.0001C20.3335 9.79095 18.5427 8.00008 16.3335 8.00008C14.1243 8.00008 12.3335 9.79095 12.3335 12.0001C12.3335 14.2093 14.1243 16.0001 16.3335 16.0001ZM16.3335 20.0001C14.8607 20.0001 13.6668 21.1939 13.6668 22.6667H11.0002C11.0002 19.7213 13.388 17.3334 16.3335 17.3334C19.279 17.3334 21.6668 19.7213 21.6668 22.6667H19.0002C19.0002 21.1939 17.8063 20.0001 16.3335 20.0001ZM4.3335 14.6667C3.59712 14.6667 3.00016 15.2637 3.00016 16.0001C3.00016 16.7365 3.59712 17.3334 4.3335 17.3334C5.06987 17.3334 5.66683 16.7365 5.66683 16.0001C5.66683 15.2637 5.06987 14.6667 4.3335 14.6667ZM0.333496 16.0001C0.333496 13.7909 2.12436 12.0001 4.3335 12.0001C6.54263 12.0001 8.3335 13.7909 8.3335 16.0001C8.3335 18.2093 6.54263 20.0001 4.3335 20.0001C2.12436 20.0001 0.333496 18.2093 0.333496 16.0001ZM27.0002 16.0001C27.0002 15.2637 27.5971 14.6667 28.3335 14.6667C29.0699 14.6667 29.6668 15.2637 29.6668 16.0001C29.6668 16.7365 29.0699 17.3334 28.3335 17.3334C27.5971 17.3334 27.0002 16.7365 27.0002 16.0001ZM28.3335 12.0001C26.1243 12.0001 24.3335 13.7909 24.3335 16.0001C24.3335 18.2093 26.1243 20.0001 28.3335 20.0001C30.5427 20.0001 32.3335 18.2093 32.3335 16.0001C32.3335 13.7909 30.5427 12.0001 28.3335 12.0001Z" fill="#007BFF"/>
</g>
<defs>
<clipPath id="clip0_71_17592">
<rect width="32" height="32" fill="white" transform="translate(0.333496)"/>
</clipPath>
</defs>
</svg>
