<svg width="32" height="32" viewBox="0 0 32 32" fill="none" xmlns="http://www.w3.org/2000/svg">
<path d="M11.528 10.1111C11.528 11.5225 10.3838 12.6667 8.97241 12.6667C7.56102 12.6667 6.41686 11.5225 6.41686 10.1111C6.41686 8.69972 7.56102 7.55556 8.97241 7.55556C10.3838 7.55556 11.528 8.69972 11.528 10.1111ZM3.8613 10.1111C3.8613 12.9339 6.14962 15.2222 8.97241 15.2222C11.7952 15.2222 14.0835 12.9339 14.0835 10.1111C14.0835 7.28832 11.7952 5 8.97241 5C6.14962 5 3.8613 7.28832 3.8613 10.1111ZM12.1669 22.25C12.1669 20.4858 10.7367 19.0556 8.97241 19.0556C7.20817 19.0556 5.77797 20.4858 5.77797 22.25V25.4444H12.1669V22.25ZM14.7224 28H3.22241V22.25C3.22241 19.0743 5.79678 16.5 8.97241 16.5C12.148 16.5 14.7224 19.0743 14.7224 22.25V28ZM25.5835 10.1111C25.5835 11.5225 24.4394 12.6667 23.028 12.6667C21.6165 12.6667 20.4724 11.5225 20.4724 10.1111C20.4724 8.69972 21.6165 7.55556 23.028 7.55556C24.4394 7.55556 25.5835 8.69972 25.5835 10.1111ZM17.9169 10.1111C17.9169 12.9339 20.2052 15.2222 23.028 15.2222C25.8507 15.2222 28.1391 12.9339 28.1391 10.1111C28.1391 7.28832 25.8507 5 23.028 5C20.2052 5 17.9169 7.28832 17.9169 10.1111ZM26.2224 22.25C26.2224 20.4858 24.7922 19.0556 23.028 19.0556C21.2637 19.0556 19.8335 20.4858 19.8335 22.25V25.4444H26.2224V22.25ZM17.278 25.4444V22.25C17.278 19.0743 19.8523 16.5 23.028 16.5C26.2036 16.5 28.778 19.0743 28.778 22.25V28H17.278V25.4444Z" fill="#007BFF"/>
</svg>
