<svg width="12" height="14" viewBox="0 0 12 14" fill="none" xmlns="http://www.w3.org/2000/svg">
<path d="M4.33333 8H7C7.18889 8 7.34722 7.93611 7.475 7.80833C7.60278 7.68056 7.66667 7.52222 7.66667 7.33333V6.83333L9 7.66667V4.33333L7.66667 5.16667V4.66667C7.66667 4.47778 7.60278 4.31944 7.475 4.19167C7.34722 4.06389 7.18889 4 7 4H4.33333C4.14444 4 3.98611 4.06389 3.85833 4.19167C3.73056 4.31944 3.66667 4.47778 3.66667 4.66667V7.33333C3.66667 7.52222 3.73056 7.68056 3.85833 7.80833C3.98611 7.93611 4.14444 8 4.33333 8ZM6 14V11.6667C5.18889 11.6667 4.41944 11.5139 3.69167 11.2083C2.96389 10.9028 2.32778 10.4917 1.78333 9.975C1.23889 9.45833 0.805556 8.85833 0.483333 8.175C0.161111 7.49167 0 6.76667 0 6C0 5.16667 0.158333 4.38611 0.475 3.65833C0.791667 2.93056 1.21944 2.29444 1.75833 1.75C2.29722 1.20556 2.93056 0.777778 3.65833 0.466667C4.38611 0.155556 5.16667 0 6 0C6.83333 0 7.61389 0.155556 8.34167 0.466667C9.06944 0.777778 9.70556 1.20556 10.25 1.75C10.7944 2.29444 11.2222 2.93056 11.5333 3.65833C11.8444 4.38611 12 5.16667 12 6C12 7.56667 11.4778 9.04722 10.4333 10.4417C9.38889 11.8361 7.91111 13.0222 6 14ZM7.33333 11.6C8.4 10.8 9.22222 9.91389 9.8 8.94167C10.3778 7.96944 10.6667 6.98889 10.6667 6C10.6667 4.71111 10.2111 3.61111 9.3 2.7C8.38889 1.78889 7.28889 1.33333 6 1.33333C4.71111 1.33333 3.61111 1.78889 2.7 2.7C1.78889 3.61111 1.33333 4.71111 1.33333 6C1.33333 7.15556 1.8 8.16667 2.73333 9.03333C3.66667 9.9 4.75556 10.3333 6 10.3333H7.33333V11.6Z" fill="#007BFF"/>
</svg>
